<svg xmlns="http://www.w3.org/2000/svg" width="330.548" height="294.773" viewBox="0 0 330.548 294.773">
  <g id="Grupo_1457" data-name="Grupo 1457" transform="translate(-1260 -1982)">
    <circle id="Elipse_201" data-name="Elipse 201" cx="78" cy="78" r="78" transform="translate(1260 1982)" fill="#00a4e5"/>
    <g id="Grupo_1157" data-name="Grupo 1157" transform="translate(2986.14 1845.533)">
      <path id="Trazado_2288" data-name="Trazado 2288" d="M-1637.254,427.1c-.789,2.613-2.254,4.618-5.263,4.015-2.909-.583-3.629-2.9-3.616-5.65.063-13.153.024-26.307.1-39.461.011-1.932-.407-3.136-2.282-4.17a11.873,11.873,0,0,1-6.349-11.719,12.111,12.111,0,0,1,8.236-11.255c2.247-.841,2.413-1.581,1.55-3.712a15.585,15.585,0,0,1,1.8-15.4,7.9,7.9,0,0,0,1.437-4.869c-.013-6.2-.465-12.431,1.571-18.5,2.574-7.669,6.761-14.189,13.236-19.069a5.136,5.136,0,0,0,2.341-5c-.175-2.336-.063-4.7-.034-7.043.1-8.188,5.568-13.716,13.731-13.781,8.1-.066,16.208-.026,24.312-.032h3.958c-3.589-5.118-5.969-10.125-6.858-15.765-.342-2.17-2.23-1.318-3.447-1.308-5.047.041-9.207-1.638-12.124-5.871-3.335-4.841-3.32-14.408.325-19a8.349,8.349,0,0,0,1.837-5.766q-.118-10.569-.015-21.139c.163-17.012,13.019-30.029,30-30.386,4.344-.092,8.7-.135,13.036.008,7.064.232,13.023,2.88,17.247,8.722,1.055,1.459,1.764,1.683,3.638,1.122,16.568-4.964,30.892,5.183,30.942,20.632q.036,10.922.005,21.845a6.324,6.324,0,0,0,1.2,4.234c4.538,5.957,4.394,12.514,1.289,18.9-2.379,4.89-6.959,6.839-12.295,6.615-2.542-.106-3.7.526-4.129,3.283-.766,4.92-3.2,9.247-6.545,13.9h7.342c7.048,0,14.1-.034,21.142,0,7.994.044,13.822,5.513,13.4,13.517-.35,6.706,1.208,11.529,6.624,16.253,7.832,6.831,10.771,16.553,10.883,26.963.053,4.971-.32,9.8,2.771,14.431a12.133,12.133,0,0,1,.459,11.889c-1.539,3.306-.175,3.452,2.644,3.437,17.97-.1,35.94-.02,53.91-.066,5.479-.014,9.542,2.34,12.046,7.1a12.45,12.45,0,0,1-4.648,16.606,4.7,4.7,0,0,0-2.53,4.778c.139,10.329.145,20.661.2,30.991-.084,1.256-.172,2.513-.251,3.769-.185,2.96.6,6.031-1.014,8.826-4.061,2.273-5.9,1.588-7.694-2.869q-.032-19.672-.062-39.344c.943-3.584-.708-4.286-4.025-4.283q-108.152.112-216.3-.03c-3.5,0-4.419,1.158-3.714,4.276Q-1637.243,407.411-1637.254,427.1Zm56.1-174.859a18.134,18.134,0,0,0,3.724,11.02c3.033,4.9,6.352,8.939,13.167,8.306,5.886-.546,11.86-.158,17.795-.183,2.17.112,4.5.862,6.413-.576,5.271-3.958,9.045-8.926,9.847-15.717a29.932,29.932,0,0,0,.7-4.495c.068-9.965.034-19.93.056-29.9a4.715,4.715,0,0,0-1.148-3.569c-3.417-3.473-7.577-1.516-11.462-1.569q-17.032-.034-34.063-.074c-3.259-.011-5.177,1.507-5.179,4.81C-1581.318,230.944-1581.215,241.592-1581.155,252.24Zm25.619,105.616c19.142,0,38.285-.04,57.428.051,2.389.012,3.206-.522,3.195-3.074-.1-22.9-.05-45.8-.067-68.7,0-4.433-1.485-5.97-5.9-5.975q-54.609-.056-109.218-.044c-4.246,0-5.784,1.514-5.786,5.71-.013,22.663.1,45.327-.057,67.989-.024,3.552,1.141,4.144,4.386,4.116C-1592.882,357.774-1574.209,357.855-1555.536,357.855Zm30.341,8.708v.025h-113.441c-1.057,0-2.122-.071-3.169.034-2.436.245-3.883,1.569-3.937,4.089s1.347,3.924,3.757,4.267a25.1,25.1,0,0,0,3.519.067q113.441,0,226.882-.007a14.287,14.287,0,0,0,3.839-.274c2.131-.6,3.416-2.059,3.125-4.446a3.939,3.939,0,0,0-3.963-3.723c-1.05-.09-2.113-.032-3.17-.032Zm8.422-154.88c0-2.465-.058-4.933.01-7.4.3-10.79-6.939-15.724-17.667-14.466a3.659,3.659,0,0,0-3.377,3.511c-.276,3.044-1.747,4.971-4.871,4.814-3.382-.171-4.248-2.546-4.44-5.624a12.124,12.124,0,0,0-12.189-11.26q-7.045-.057-14.089,0a20.506,20.506,0,0,0-20.119,16.818c-1.446,8.032-.36,16.151-.627,24.226-.03.882.164,1.68,1.263,1.741.8.044,1.747.314,2.333-.372.837-.981.407-2.254.425-3.394.123-7.956,5.856-13.7,13.814-13.711q20.959-.025,41.917.02a13.012,13.012,0,0,1,3.822.41c6.575,1.971,9.364,6.036,9.672,14.467.056,1.561.1,2.747,2.2,2.685,1.953-.059,1.934-1.241,1.927-2.6C-1516.781,218.258-1516.771,214.971-1516.773,211.683Zm33.553,128.788c-2.766-.722-3.439.79-3.289,3.6.206,3.841.07,7.7.07,11.551,0,1.216-.007,2.17,1.717,2.4,5.773.773,11-2.914,11.389-8.24C-1472.95,344.593-1477.1,340.541-1483.22,340.471Zm-141.274,8.878h.024c0-2.223.026-4.447-.013-6.669-.016-.87.281-2.036-1.122-2.149-3.464-.277-6.8-.068-9.416,2.7a8.31,8.31,0,0,0-1.841,9.1c1.23,3.375,3.951,5.158,7.451,5.607,4.729.606,4.915.388,4.917-4.373Q-1624.493,351.457-1624.494,349.35Zm138.028-42.937v19.626c0,6.6,0,6.6,6.528,6.112a2.779,2.779,0,0,1,.351,0c1.167.064,1.679-.5,1.761-1.653C-1477.185,321.58-1479.591,313.743-1486.466,306.413Zm-138.011,1.544-.9-.281a27.77,27.77,0,0,0-7.674,18.5c-.205,6.287-.14,6.23,6.075,5.947,1.723-.078,2.549-.481,2.53-2.39C-1624.522,322.476-1624.477,315.216-1624.477,307.957Zm112.174-68.794c0-.7.044-1.4-.008-2.1-.248-3.313-2.022-4.392-6.153-4.484-3.875-.086-2.258,2.653-2.487,4.369a33.941,33.941,0,0,0-.04,4.545c.013,3.965,2.487,5.447,6.245,3.7C-1512.1,243.955-1512.233,241.53-1512.3,239.162Zm-77.64-.081c0-1.526.018-3.053-.008-4.579-.011-.673.059-1.36-.755-1.773-3.055-1.551-7.5.765-7.817,4.18a25.547,25.547,0,0,0,0,4.575c.273,3.084,2.16,4.125,6.114,4.194,3.6.063,2.21-2.453,2.451-4.133A16.393,16.393,0,0,0-1589.943,239.081Z" transform="translate(0 0)" fill="#0a214f"/>
      <path id="Trazado_2289" data-name="Trazado 2289" d="M-1323.375,224q0,22.545,0,45.091c0,5.812-.919,6.75-6.625,6.749q-30.65-.006-61.3-.037c-11.45-.017-18.6-7.241-18.6-18.764q0-30.823.035-61.647c.023-13.953,9.223-23.148,23.187-23.168q28.536-.041,57.072,0c4.818,0,6.209,1.438,6.211,6.339q.006,22.722,0,45.443Zm-8.974,34.811a36.364,36.364,0,0,1,.245-4.516c.644-3.685-.992-4.443-4.417-4.411-18.045.168-36.093.214-54.138.047-6.321-.059-10.481,3.371-10.745,8.882,1.379,5.944,4.3,8.4,10.169,8.4q25.8.028,51.6.008C-1331.588,267.223-1331.588,267.223-1332.349,258.812Zm-31.659-17.621v.032c9.507,0,19.015-.078,28.521.054,2.479.035,3.469-.4,3.447-3.21q-.218-26.933-.039-53.868c.017-2.68-.746-3.321-3.351-3.308-17.488.091-34.976-.04-52.464.012-7.7.023-13.21,5.679-13.311,13.424-.057,4.459-.011,8.919-.008,13.379.008,11.031.05,22.063,0,33.1-.008,2.052.348,2.828,2.535,1.77a18.4,18.4,0,0,1,8.257-1.4C-1381.614,241.216-1372.811,241.191-1364.008,241.191Z" transform="translate(-72.218 -0.022)" fill="#0a214f"/>
      <path id="Trazado_2290" data-name="Trazado 2290" d="M-1538.216,375.389c-.054-10.916,6.53-18.362,15.3-19.307,3.5-.377,5.9,1.041,6.052,3.765.185,3.262-1.725,4.42-4.756,4.819-5.478.72-8.754,5.113-7.87,10.127a8.7,8.7,0,0,0,9.514,7.034c5.207-.818,8.35-5.4,7.175-10.944-.632-2.978-.172-5.193,2.844-6.223,2.536-.864,4.861.874,5.686,4.315a16.516,16.516,0,0,1-5.68,17.425c-5.372,4.561-11.69,5.567-18.123,2.6C-1534.579,386.011-1538.042,380.678-1538.216,375.389Z" transform="translate(-34.363 -54.253)" fill="#0a214f"/>
      <path id="Trazado_2291" data-name="Trazado 2291" d="M-1537.006,289.938c-.979-2.125-1.369-4.223.643-5.985,2.193-1.92,4.258-.878,6.27.431,6.037,4.673,12.356,4.717,18.293.128,3.115-2.409,5.531-2.453,7.283-.136,1.668,2.208,1.091,4.388-1.825,6.9C-1515.035,298.748-1527.4,298.21-1537.006,289.938Z" transform="translate(-34.483 -32.613)" fill="#0a214f"/>
      <path id="Trazado_2292" data-name="Trazado 2292" d="M-1501.822,256.285c.6-2.305,1.877-3.943,4.365-4.367,2.232.125,3.973,1.206,4.264,3.4.372,2.809,1.091,5.841-1.2,8.3a3.973,3.973,0,0,1-4.2,1.01,4,4,0,0,1-3.041-3.468C-1501.841,259.553-1501.768,257.911-1501.822,256.285Z" transform="translate(-45.1 -23.54)" fill="#0a214f"/>
      <path id="Trazado_2293" data-name="Trazado 2293" d="M-1529.687,261.064a6.176,6.176,0,0,1-3.925,3.788c-2.212,0-4.209-.827-4.483-3.081-.354-2.912-1.263-6.114,1.134-8.687a3.88,3.88,0,0,1,4.24-.891,4.117,4.117,0,0,1,2.923,3.614C-1529.605,257.543-1529.712,259.311-1529.687,261.064Z" transform="translate(-34.261 -23.543)" fill="#0a214f"/>
      <path id="Trazado_2294" data-name="Trazado 2294" d="M-1343.8,222.715c-3.874,0-7.748.051-11.621-.015s-5.411-1.534-5.459-5.284q-.1-7.57,0-15.141c.052-3.788,1.608-5.329,5.381-5.351q11.973-.072,23.948-.011c3.722.017,5.153,1.416,5.187,5.055q.073,7.746-.019,15.494c-.046,3.707-1.434,5.129-5.091,5.195-4.107.075-8.217.018-12.326.018Zm.068-17.3h-2.809c-6.282,0-6.57.374-5.82,6.737.15,1.266.5,1.932,1.874,1.92,4.682-.041,9.366-.032,14.048-.03.981,0,1.368-.425,1.569-1.425,1.152-5.765.08-7.158-5.7-7.195C-1341.625,205.42-1342.679,205.426-1343.733,205.419Z" transform="translate(-86.667 -7.304)" fill="#0a214f"/>
      <path id="Trazado_2295" data-name="Trazado 2295" d="M-1376.589,216.33c0,6.677.011,13.354,0,20.031-.008,4.041-1.38,6-4.214,6.114s-4.358-1.9-4.365-5.892q-.037-20.03-.032-40.061c0-3.775,1.406-5.641,4.176-5.719,2.878-.082,4.4,1.913,4.41,5.848.015,6.56,0,13.12,0,19.68Z" transform="translate(-79.505 -5.508)" fill="#0a214f"/>
      <path id="Trazado_2296" data-name="Trazado 2296" d="M-1341.687,248.376c-2.689,0-5.38.047-8.067-.015-2.856-.067-4.859-1.509-4.848-4.412.01-2.955,2.042-4.235,4.945-4.215q7.892.055,15.784.023c2.863-.015,4.808,1.076,5.011,4.133.178,2.666-1.825,4.388-5.108,4.474C-1336.542,248.432-1339.115,248.379-1341.687,248.376Z" transform="translate(-88.535 -19.945)" fill="#0a214f"/>
      <path id="Trazado_2297" data-name="Trazado 2297" d="M-1331.1,293.188c-.641,3-2.545,4.22-5.554,4.213q-24.784-.058-49.567-.011a5.677,5.677,0,0,1-5.955-4.2c.271-3.2,2.345-4.418,5.212-4.425,17-.044,34-.012,51-.032C-1332.925,288.729-1331.524,290.393-1331.1,293.188Z" transform="translate(-77.448 -34.401)" fill="#0a214f"/>
    </g>
  </g>
</svg>
