<?xml version="1.0" encoding="utf-8"?>
<!-- Generator: Adobe Illustrator 25.3.1, SVG Export Plug-In . SVG Version: 6.00 Build 0)  -->
<svg version="1.1" id="Layer_1" xmlns="http://www.w3.org/2000/svg" xmlns:xlink="http://www.w3.org/1999/xlink" x="0px" y="0px"
	 viewBox="0 0 207.6 106.4" style="enable-background:new 0 0 207.6 106.4;" xml:space="preserve">
<style type="text/css">
	.st0{fill:#017336;}
	.st1{fill:#FFFFFF;}
	.st2{fill:#00A4E5;}
	.st3{fill:#0A214F;}
	.st4{fill:#6AB0CA;}
	.st5{fill:url(#SVGID_1_);}
</style>
<g>
	<g id="Grupo_1452" transform="translate(585.897 203.032)">
		<g id="Group_1448" transform="translate(-585.897 -203.032)">
			<g id="Path_1" transform="translate(35.545 32.378)">
				<path id="Trazado_2423" class="st0" d="M42.5,4.2c7.2,0.1,14.3,0.5,21.2,3c6.9,2.5,11.5,7.1,13.3,14.4c0.4,1.5-0.2,1.7-1.4,1.8
					c-6.2,0.2-12.4,0.4-18.5,0.8c-2.6,0.2-4.5,0.2-5.3-3C51.1,19,49,17.7,46.8,17c-3.7-1.2-7.6-1.3-11.3-0.4
					c-0.5,0.1-0.9,0.3-1.4,0.5c-1.6,0.8-3,1.9-2.8,3.9c0.1,1.9,1.6,2.7,3.2,3.3c3.4,1.3,7,1.6,10.5,2.2c7.6,1.4,15.2,2.7,22.4,5.6
					c2.8,1.1,5.5,2.7,7.7,4.8c6.6,6.2,6.6,16.2-0.2,23.1c-4.6,4.8-10.5,7.1-16.8,8.4c-8.1,1.6-16.2,1.6-24.4,1
					c-4.8-0.2-9.6-1.1-14.1-2.7c-8.2-3-13.4-8.8-15.2-17.4c-0.2-1.1-0.3-1.6,1.2-1.7c7.3-0.3,14.6-0.7,21.9-1.1
					c0.7,0,1.2-0.1,1.5,0.9c1.4,6.7,6.4,9.1,12,9.7c2.9,0.4,5.9,0.1,8.7-0.8c1.1-0.4,2.1-0.9,3-1.6c3.1-2.5,3.1-5.7-0.1-8.1
					c-2.4-1.8-5.4-2.4-8.2-3c-6.4-1.3-12.9-2.2-19.1-4.1c-3.6-1-7-2.5-10.2-4.4C4.6,28.9,4.9,17,14.5,10.4c4.4-2.9,9.4-4.7,14.7-5.3
					C33.6,4.4,38,4.1,42.5,4.2z"/>
				<path id="Trazado_2424" class="st1" d="M43.2,74.1c-3,0-6.3-0.1-9.8-0.4c-5.2-0.3-10.3-1.2-15.2-2.9l-0.1,0
					C8.3,67.1,2.3,60.2,0.2,50.3C-0.3,48.6,0,46.9,1,45.5c1.1-1.3,2.6-2,4.3-2c5.3-0.2,10.7-0.5,16-0.8c-3-1-5.9-2.4-8.6-4l-0.1,0
					C6.7,35.1,3.2,29.5,3,23.4C2.9,17,6.2,11.1,12.1,7l0.1-0.1c4.9-3.2,10.6-5.3,16.4-6c4.6-0.7,9.3-1,13.9-0.9l0,0
					c7.3,0.1,15.1,0.5,22.6,3.2C73.6,6.3,79,12.1,81,20.5c0.5,1.7,0.2,3.5-0.8,4.9c-1.1,1.3-2.8,2.1-4.5,2c-1.5,0.1-3,0.1-4.4,0.2
					c-1.3,0-2.6,0.1-3.9,0.1c0.5,0.2,1,0.4,1.5,0.6c3.3,1.3,6.4,3.2,9,5.5l0.1,0c3.9,3.5,6.1,8.5,6.2,13.7
					c0.1,5.7-2.2,11.3-6.2,15.3c-4.7,4.9-10.8,8-19,9.6C53.7,73.6,48.4,74.1,43.2,74.1z M20.9,62.9c4.2,1.4,8.5,2.2,12.9,2.5l0.1,0
					c9.5,0.7,16.6,0.4,23.2-0.9c6.5-1.3,11.2-3.6,14.7-7.2c2.5-2.5,3.9-5.8,3.9-9.3c-0.1-3-1.4-5.8-3.6-7.8c-1.9-1.7-4-3-6.4-3.9
					l-0.1,0c-6.2-2.5-12.8-3.8-19.7-5l-1.8-0.3c-0.9-0.2-1.8-0.3-2.7-0.5c-2.9-0.4-5.7-1-8.5-2c-3.7-1.4-5.7-3.7-5.9-6.9
					c-0.2-3.3,1.5-6,5-7.9c0.7-0.4,1.5-0.7,2.3-0.9c4.5-1.2,9.3-1,13.7,0.4c4,1.3,6.7,3.8,7.6,7c0.4,0,0.8,0,1-0.1
					c4.8-0.3,9.6-0.5,14.3-0.7l0.8,0c-1.8-3.8-4.8-6.5-9.5-8.2c-6-2.2-12.2-2.6-19.8-2.7l0,0c-4.3,0-8.5,0.2-12.7,0.9l-0.1,0
					c-4.6,0.5-9,2.1-12.8,4.6c-3.5,2.5-5.5,5.8-5.4,9.3c0.1,3.3,2.1,6.3,5.6,8.5c2.9,1.7,6,3,9.2,4l0.1,0c4.2,1.2,8.4,2.2,12.7,2.9
					c2,0.4,4,0.7,6,1.2l0.4,0.1c3,0.6,6.4,1.4,9.5,3.6c2.4,1.6,4,4.4,4.1,7.3c0,3-1.5,5.7-3.9,7.4c-1.3,1-2.7,1.7-4.2,2.3l-0.1,0
					c-3.4,1.1-7,1.4-10.5,0.9c-7.5-0.7-12.6-4.4-14.8-10.4l-3.3,0.2c-4.2,0.2-8.6,0.4-12.9,0.6C11.3,57.1,15.1,60.7,20.9,62.9z
					 M32.6,45.8c0.1,0.3,0.2,0.6,0.3,0.9c0.6,2.7,2,5.8,8.3,6.4l0.2,0c2.3,0.3,4.6,0.1,6.9-0.6c0.6-0.2,1.2-0.5,1.7-0.9
					c0.3-0.2,0.5-0.5,0.7-0.7c-0.2-0.3-0.4-0.5-0.7-0.7c-1.6-1.2-3.7-1.6-6.2-2.2l-0.4-0.1c-1.9-0.4-3.9-0.8-5.8-1.1
					C35.9,46.4,34.3,46.1,32.6,45.8L32.6,45.8z M24.7,48.4L24.7,48.4z M36.5,20.7c2.1,0.6,4.2,1.1,6.3,1.3c1,0.2,2,0.3,2.9,0.5
					l1.8,0.3l0.4,0.1c-0.1-0.2-0.1-0.4-0.2-0.7c-0.1-0.2-0.7-0.8-2.1-1.3C42.6,20,39.5,19.9,36.5,20.7L36.5,20.7z"/>
			</g>
			<g id="Path_2" transform="translate(105.801 33.514)">
				<path id="Trazado_2425" class="st2" d="M7,67.6c3.4-7.1,6.6-14,9.9-20.9C23.5,33,30,19.3,36.5,5.5c0.3-0.9,1.2-1.5,2.1-1.3
					c8.2,0,16.3,0.1,24.5,0c0.8-0.1,1.5,0.4,1.8,1.1c9.6,20.4,19.3,40.8,28.9,61.2c0.5,1.1,0.3,1.3-0.8,1.3c-7.8,0-15.5,0-23.3,0
					c-0.8,0.1-1.6-0.5-1.8-1.3c-1-2.7-2.1-5.4-3.1-8.1c-0.1-0.7-0.8-1.1-1.5-1c-8.7,0-17.3,0-26,0c-0.7-0.1-1.4,0.4-1.6,1.2
					c-1,2.8-2.1,5.5-3.1,8.3c-0.2,0.6-0.5,1-1.3,1c-7.9,0-15.8,0-23.7,0C7.4,67.7,7.2,67.7,7,67.6z M59.1,43.4l-8.7-22.7
					c-1.5,4-3,7.7-4.4,11.4c-1.4,3.7-2.9,7.5-4.4,11.3L59.1,43.4z"/>
				<path id="Trazado_2426" class="st1" d="M69.5,72c-2.6,0-4.9-1.8-5.6-4.3c-0.5-1.3-1-2.7-1.5-3.9c-0.3-0.7-0.6-1.5-0.9-2.2
					c-7.4,0-15,0-22.4,0c-0.5,1.3-0.9,2.5-1.4,3.8c-0.4,1-0.7,2-1.1,2.9c-0.7,2.3-2.9,3.8-5.3,3.7c-5.9,0-11.7,0-17.6,0L0,72
					l6.7-13.3c2.2-4.6,4.3-9.2,6.5-13.7c6.5-13.7,13-27.3,19.5-41c1-2.5,3.4-4.1,6.1-3.9c8,0,16.1,0,24.1,0c2.5-0.2,4.9,1.3,5.8,3.6
					C78.2,23.9,101.8,72,101.8,72l-8.8,0c0,0-15.4,0-23.1,0C69.7,71.9,69.6,72,69.5,72z M68.8,57.1c0.4,1.2,0.9,2.4,1.4,3.6
					c0.4,0.9,0.7,1.9,1.1,2.8c5.5,0,11,0,16.5,0C79.1,45.2,70.3,26.7,61.7,8.4c-7.3,0-14.6,0-21.9,0c-6.4,13.4-12.7,26.8-19.1,40.2
					c-2.2,4.6-4.3,9.1-6.5,13.7l-0.6,1.3h0.2c5.2,0,10.5,0,15.7,0c0.2-0.4,0.3-0.9,0.5-1.3c0.6-1.7,1.3-3.3,1.9-5
					c0.7-2.6,3.1-4.3,5.7-4.1c8.5,0,17.1,0,25.6,0C65.7,53,68.1,54.6,68.8,57.1L68.8,57.1z M65.2,47.6H35.6l3.7-9.5
					c1-2.5,1.9-5,2.9-7.5c1-2.5,1.9-5,2.9-7.6l5.4-14L65.2,47.6z M47.7,39.3H53l-2.6-6.9l-0.5,1.3C49.2,35.5,48.5,37.4,47.7,39.3
					L47.7,39.3z"/>
			</g>
			<g id="Path_3" transform="translate(3.617 29.526)">
				<path id="Trazado_2427" class="st3" d="M32.6,8.3v1.3c0,20.2,0,40.4,0,60.6c0,1.2-0.3,1.5-1.5,1.5c-8.6-0.1-17.1,0-25.7,0
					c-0.9,0-1.2-0.2-1.2-1.2c0-20.5,0-40.9,0-61.4c0-0.2,0-0.5,0-0.8C13.7,15.4,23,15.4,32.6,8.3z"/>
				<path id="Trazado_2428" class="st1" d="M31.2,75.9H31c-9.1-0.1-18.1,0-25.6,0c-1.5,0.1-2.9-0.5-4-1.5c-1-1-1.5-2.5-1.5-3.9
					c0-20.4,0-41,0-61.4c0-0.2,0-0.5,0-0.8l0-0.3l0.4-7.8l6.3,4.6C14.7,11,22.1,10.9,30.1,5l6.7-5v9.6c0,20.2,0,40.4,0,60.6
					c0.1,1.6-0.5,3.1-1.5,4.2C34.1,75.5,32.7,76,31.2,75.9z M18.4,67.6c3.3,0,6.6,0,10,0c0-17.3,0-34.7,0-52c-6.4,2.9-13.6,2.9-20,0
					c0,17.2,0,34.7,0,51.9C11.5,67.6,14.9,67.6,18.4,67.6L18.4,67.6z"/>
			</g>
			<g id="Path_4" transform="translate(39.118 10.536)">
				<path id="Trazado_2429" class="st3" d="M21.4,9.3c0.3,3.8-0.4,7.3,0.5,10.8h-3c0.9-2,0.8-12.4-0.1-14.1c1.4,0.2,2.9-0.6,4,0.8
					c0.9,1.1,1.9,2.1,3.2,3.4c0-1.5,0.1-2.7,0-3.8c-0.1-1.1-0.9-1.2-1.8-1.3c-0.4,0-1.2,0.3-1.2-0.5c0-0.6,0.8-0.4,1.3-0.4
					c2,0,3.9,0,5.9,0c0.4,0,1.1-0.2,1.1,0.4c0,0.6-0.7,0.4-1.1,0.5c-0.5,0.1-1,0.2-1.4,0.3c-0.7,0.1-1.2,0.7-1.1,1.3
					c0,0.1,0,0.3,0,0.4c-0.9,4.1,1.2,6.7,4.4,9.1c-0.3-3.4,0.5-6.8-0.5-10.2h3.1c-0.7,1.2-1,2.6-0.8,4c0,3.1,0,6.3,0,9.4
					c0,1.1-0.4,1.1-1.2,0.8c-1.1-0.6-2.1-1.5-2.9-2.4c-0.6-0.6-1.2-1.3-1.9-2c-0.1,1.5-0.5,3.1-1.1,4.4c-1.5,2.4-3.8,3.2-6.4,3.4
					c-2.5,0.3-5,0.2-7.5-0.1c-3.3-0.6-4.9-2.4-5-5.7c-0.1-3.2,0-6.5,0-9.7c0-2.6-0.1-2.6-2.6-2.9c-0.3,0-0.9,0.3-0.9-0.4
					c0-0.5,0.5-0.5,0.9-0.5c2.9,0,5.8,0,8.7,0c0.4,0,0.9,0.1,0.9,0.6c0,0.4-0.5,0.3-0.8,0.4c-2.9,0.6-3,0.6-3,3.6
					c0,2.9,0,5.9,0.1,8.8c0.2,3.1,2.2,5,5.3,5.1c1.6,0.1,3.2,0,4.8-0.2c3.4-0.3,4.4-2.8,4.8-5.3c0.3-2.2,0-4.1-1.9-5.6
					C23.1,11,22.2,10.2,21.4,9.3z"/>
				<path id="Trazado_2430" class="st1" d="M16.9,27.9c-1.6,0-3.2-0.1-4.8-0.4l-0.1,0c-5.3-1-8.3-4.4-8.4-9.7c-0.1-2.3,0-4.6,0-6.8
					c0-0.6,0-1.2,0-1.8c-0.7-0.2-1.4-0.5-2-1C0.5,7.3,0,6,0,4.7C0,2.1,2.2,0,4.8,0C4.9,0,5,0,5.1,0c2.9,0,5.8,0,8.7,0
					c1,0,1.9,0.2,2.8,0.7l1.5,1.1l1.8-0.2c1.1-1.2,2.6-1.8,4.2-1.6h0.1C26.1,0,28,0,30,0c1.4-0.2,2.8,0.2,3.8,1.1
					c0.2,0.2,0.4,0.4,0.6,0.7h7.3l-3.6,6.2c-0.2,0.4-0.3,0.9-0.3,1.4l0,0.5c0,1.2,0,2.4,0,3.6c0,1.9,0,3.9,0,5.8
					c0.1,1.3-0.4,2.7-1.2,3.7l0.2,2.1l-1.5-1.1c-1.5,0.7-3.2,0.7-4.6-0.1l-0.3-0.2c-0.3-0.2-0.7-0.4-1-0.6c-2,2.6-5,4.2-8.9,4.5
					C19.3,27.9,18.1,27.9,16.9,27.9z M15,9.2c0,2.5,0,5.4,0.1,8.2c0,0.1,0,0.3,0,0.4c0.3-2.9,0.3-5.7,0-8.6
					C15.1,9.2,15.1,9.2,15,9.2z M13.8,8.4L13.8,8.4z"/>
			</g>
			<g id="Path_5" transform="translate(105.488 12.014)">
				<path id="Trazado_2431" class="st3" d="M10.7,11.4c1-0.4,1.9-0.7,2.8-1.1c1-0.3,1.6-1.3,1.4-2.3c-0.1-1.1-1-1.9-2-2
					C12.1,6,11.3,5.9,10.6,6c-0.7,0-0.8,0.3-0.8,0.9c0,3.2,0,6.5,0,9.7c0.1,0.7,0.3,1.4,0.8,2h-4c1.1-2.2,0.5-4.6,0.5-7
					c0-2.4,0.6-4.8-0.6-7.2c2.5,0.1,5-0.2,7.5,0.2c0.7,0.1,1.3,0.3,1.9,0.7c2.2,1.3,2.3,3.8,0.2,5.3c-0.7,0.4-1.4,0.8-2.1,1.1
					c3,5.9,8.1,7.1,13.7,5.5c1-0.3,2-0.8,2.1-2c0-1.2-1-1.6-1.8-2.1c-1.5-0.7-3.1-1.4-4.7-2.1c-1.4-0.7-2.5-1.7-2.3-3.4
					c0.2-1.7,1.5-2.4,2.9-2.9C26.2,4,28.5,4,30.8,4.6C32,4.8,30.9,6,31.4,6.6c-0.6,0.3-0.9-0.1-1.2-0.2c-1.2-0.6-2.6-0.9-4-0.7
					c-1,0.1-2.2,0.4-2.4,1.6s0.7,1.7,1.6,2.1c1.6,0.8,3.2,1.4,4.8,2.1c1.3,0.4,2.2,1.6,2.3,3c0,1.4-0.8,2.7-2.1,3.3
					c-1,0.6-2,1-3.2,1.1c-2.9,0.3-5.9,0.2-8.8-0.3c-1.1-0.1-2.1-0.6-2.8-1.4C14,15.3,12.3,13.4,10.7,11.4z"/>
				<path id="Trazado_2432" class="st1" d="M24,23.2c-2,0-4-0.2-6-0.4l-0.2,0H0l2.8-5.9c0.3-1,0.4-2.1,0.2-3.2c0-0.6-0.1-1.3-0.1-2
					s0-1.4,0.1-2c0.2-1.1,0.1-2.2-0.2-3.2L0.3,1.6l6.4-1.2c0.8,0,1.7,0,2.6,0c1.8-0.1,3.6,0,5.4,0.3C15.8,0.8,17,1.2,18,1.8l0.1,0
					c0.4,0.2,0.8,0.5,1.1,0.8c1-0.9,2.2-1.5,3.4-1.9l0.2-0.1c2.9-0.8,6-0.9,8.9-0.2c2.2,0.4,3.8,2.3,3.8,4.5l2.3,2.7l-3.2,1.9
					c1.2,1.3,2,2.9,2.1,4.7l0,0.2c0,3-1.6,5.7-4.2,7c-1.5,0.9-3.1,1.4-4.9,1.6C26.4,23.2,25.2,23.2,24,23.2z"/>
			</g>
			<g id="Path_6" transform="translate(173.559 12.121)">
				<path id="Trazado_2433" class="st3" d="M7.1,4.4c3,0.1,5.9-0.2,8.8,0.3c4.5,0.7,7.2,4.1,6.3,8.1c-0.6,2.6-2.6,4.7-5.2,5.2
					c-3.2,0.9-6.5,0.5-9.8,0.6C8.1,16.5,8.1,6.1,7.1,4.4z M10.5,11.5v2.2c0,3.5,0.2,3.7,3.8,3.3c2.5-0.2,4.6-1.9,5.3-4.2
					c0.6-2.2-0.3-4.6-2.3-5.8c-1.8-1.1-4-1.4-6.1-1c-0.7,0.1-0.7,0.5-0.7,1C10.5,8.6,10.5,10,10.5,11.5L10.5,11.5z"/>
				<path id="Trazado_2434" class="st1" d="M1.8,22.7L3.3,17c0.5-3.6,0.5-7.3,0-10.9L0,0l7.2,0.2c0.9,0,1.8,0,2.8,0
					c2.2-0.1,4.4,0,6.5,0.3c3.3,0.4,6.3,2.2,8.2,4.9c1.6,2.4,2.2,5.4,1.5,8.2c-0.9,4.1-4.1,7.4-8.2,8.3c-2.7,0.7-5.5,0.9-8.3,0.8
					c-0.9,0-1.8,0-2.6,0L1.8,22.7z M3.4,16.9L3.4,16.9L3.4,16.9z M14.7,11.5v1.2c0.4-0.2,0.7-0.6,0.9-1c0.1-0.4-0.1-0.8-0.4-1
					c-0.1-0.1-0.3-0.2-0.5-0.2L14.7,11.5z"/>
			</g>
			<g id="Path_7" transform="translate(140.716 12.159)">
				<path id="Trazado_2435" class="st3" d="M7.1,18.5c1-1.9,1.1-12.1,0-14.2c3,0.1,6-0.2,9,0.3c3.3,0.6,6,3,6.3,5.8
					c0.4,3.2-1.5,6.3-4.7,7.3c-1.3,0.5-2.7,0.7-4,0.8C11.6,18.6,9.4,18.5,7.1,18.5z M10.5,11.3v2.4c0,3.5,0.2,3.7,3.8,3.3
					c2.4-0.2,4.5-1.8,5.2-4.1c0.6-2-0.1-4.3-1.8-5.5c-1.9-1.4-4.3-1.8-6.6-1.3c-0.6,0.1-0.7,0.4-0.7,0.9
					C10.6,8.4,10.6,9.9,10.5,11.3L10.5,11.3z"/>
				<path id="Trazado_2436" class="st1" d="M11.1,22.7c-0.7,0-1.3,0-2,0s-1.3,0-2,0H0l3.4-6c0.5-3.5,0.5-7.1,0-10.6L0.3,0l6.9,0.2
					c0.9,0,1.7,0,2.7,0c2.3-0.1,4.6,0,6.9,0.3c5.2,0.9,9.3,4.9,9.8,9.5c0.6,5.1-2.4,9.9-7.3,11.6l-0.1,0c-1.7,0.6-3.5,1-5.3,1
					C12.9,22.7,12,22.7,11.1,22.7z M3.3,16.8L3.3,16.8z M14.7,10.3v2.3c0.4-0.2,0.7-0.6,0.8-1c0.1-0.3,0-0.7-0.3-0.9
					C15.1,10.5,14.9,10.4,14.7,10.3L14.7,10.3z M3.4,6.2L3.4,6.2L3.4,6.2z"/>
			</g>
			<g id="Path_8" transform="translate(154.749 12.205)">
				<path id="Trazado_2437" class="st3" d="M25.4,18.5H21c0.4-0.9-0.6-4.5-1.4-5.1c-0.3-0.1-0.5-0.2-0.8-0.2c-0.8,0-1.7,0-2.5,0
					c-1,0-2.2-0.4-2.8,0.2c-0.8,1.1-1.4,2.2-1.8,3.5c-0.3,0.5,0.1,1,0.3,1.6H8.6c2.3-2.9,6.5-12.7,6.1-14c0.1,0,0.2-0.1,0.3-0.1
					c3.3-0.1,3.3-0.1,4.6,2.9c1.2,2.7,2.4,5.4,3.6,8C23.7,16.5,24.4,17.6,25.4,18.5z M16.6,6.3c-0.9,1.8-1.5,3.2-2.2,4.7
					c-0.3,0.6-0.1,0.8,0.5,0.8c1.3,0,2.5,0,4,0L16.6,6.3z"/>
				<path id="Trazado_2438" class="st1" d="M31.6,22.6H14.8l0,0H0l5.3-6.7c1.6-2,4.5-8.6,5.1-11l-1-3l3.8-1.4
					c0.4-0.1,0.8-0.2,1.2-0.3l0.4,0h0.1l0.4-0.1c1.1-0.2,2.2-0.1,3.3,0.3l0,0c2.2,0.6,3.3,2,4.8,5.1c1.2,2.7,2.4,5.4,3.6,8l0.1,0.2
					c0.2,0.6,0.6,1.1,1,1.5L31.6,22.6z M16,17.4l0.5,1.1l0.4-0.9c0-0.1,0-0.1,0-0.2c-0.1,0-0.2,0-0.4,0C16.3,17.4,16.2,17.4,16,17.4
					L16,17.4z"/>
			</g>
			<g id="Path_9" transform="translate(94.418 12.319)">
				<path id="Trazado_2439" class="st3" d="M15.5,15.7c-0.9,2.7-0.9,2.7-3.5,2.7H4.8c0.6-4.7,0.6-9.5,0-14.2c2.5,0,5.2,0,7.9,0
					c1.8,0,0.2,1.4,0.8,2c-1.5-0.5-3-0.6-4.5-0.5C8.2,5.8,7.8,6.1,7.8,7c0,2.9,0,3,2.8,2.9c1.7-0.1,1.5,0.9,1.3,1.9
					c-3.9-0.9-4-0.7-4.1,3.1c0,1.2,0.2,1.8,1.6,1.9C11.5,16.9,13.6,16.6,15.5,15.7z"/>
				<path id="Trazado_2440" class="st1" d="M11.9,22.5H0l0.6-4.7c0.6-4.3,0.6-8.7,0-13.1L0,0h4.8c0.7,0,1.4,0,2.2,0
					c1.9,0,3.8,0,5.8,0c1.6,0,3.1,0.7,4,1.9c0.5,0.7,0.8,1.5,0.9,2.3L22,7.9l0.7-0.3l-0.3,0.7l9.6,8.2l-11.2-3.6L19.4,17
					C18,21.1,16.7,22.5,11.9,22.5z"/>
			</g>
			<g id="Path_10" transform="translate(74.974 12.361)">
				<path id="Trazado_2441" class="st3" d="M7.4,4.2c3.2-0.1,3.2-0.1,4.3,2.5c1.1,2.8,2.3,5.6,3.6,8.8c1.5-3.3,2.8-6.3,4.1-9.2
					c0.3-0.8-0.1-1.4-0.6-2.1h3.8c-1.5,3.2-2.9,6.3-4.4,9.4C17.4,15,16.7,16.5,16,18c-0.3,0.7-0.6,0.7-1.2,0.4
					c-1.1-0.6-1.9-1.6-2.3-2.8c-0.8-1.8-1.5-3.7-2.3-5.6C9.5,8,8.6,6,7.4,4.2z"/>
				<path id="Trazado_2442" class="st1" d="M15,26.2l-1.5-3.8c-0.2-0.1-0.4-0.2-0.7-0.3L12.7,22c-1.9-1.1-3.3-2.8-4-4.9
					c-0.4-0.9-0.8-1.8-1.1-2.7c-0.4-0.9-0.7-1.8-1.1-2.7l-0.1-0.3C5.7,9.6,4.9,8,3.9,6.4L0,0.3L7.2,0c1.2-0.1,2.4,0,3.6,0.2L10.8,0
					h18.3l-4.1,8.8c-1,2.2-2,4.4-3.1,6.5c-0.2,0.5-0.5,1-0.7,1.5c-0.5,0.9-0.9,1.8-1.3,2.7c-0.5,1.3-1.6,2.4-2.9,2.8
					c-0.1,0-0.2,0.1-0.3,0.1L15,26.2z M15.5,4.6L15.5,4.6L15.5,4.6z"/>
			</g>
			<g id="Path_11" transform="translate(134.814 12.364)">
				<path id="Trazado_2443" class="st3" d="M6.1,4.2h3.5c-0.6,4.7-0.6,9.4,0,14.1H6.1C6.8,13.6,6.8,8.9,6.1,4.2z"/>
				<path id="Trazado_2444" class="st1" d="M14.2,22.5H0l2-4.8c0.6-4.3,0.6-8.6,0-12.9L1.2,0h13l-0.6,4.7c-0.5,4.4-0.6,8.8,0,13.1
					L14.2,22.5z"/>
			</g>
			<g id="Path_12" transform="translate(72.422 12.359)">
				<path id="Trazado_2445" class="st3" d="M4.9,4.2h3.5c-0.9,4.7-0.6,9.4-0.2,14.1H4.9C5.6,13.6,5.6,8.9,4.9,4.2z"/>
				<path id="Trazado_2446" class="st1" d="M12.7,22.5H0l0.7-4.8C1.4,13.4,1.4,9,0.8,4.8L0.1,0h13.3l-0.9,4.9
					C11.8,9,12,13.3,12.4,18L12.7,22.5z"/>
			</g>
			<g id="Path_13">
				<path id="Trazado_2447" class="st4" d="M39.7,23.5c-0.1,1.9-0.5,3.8-1.4,5.4c-2.2,5.3-6.9,9.2-12.6,10.3
					c-9.5,2.1-18.9-3.9-21-13.3c0,0,0,0,0,0c-0.1-0.5-0.2-1-0.3-1.5c-0.5-2.6-0.2-5.3,0.8-7.8c1.2-4.3,4.2-8,8.2-10.1
					c6.9-3.8,15.4-2.6,21,2.8C38.2,12.9,40.1,18.2,39.7,23.5z"/>
				<path id="Trazado_2448" class="st1" d="M21.8,43.8c-4.1,0-8.2-1.2-11.6-3.4c-4.9-3.1-8.3-8-9.6-13.6c-0.1-0.6-0.2-1.2-0.3-1.8
					c-0.6-3.3-0.3-6.7,0.9-9.8C2.8,9.8,6.5,5.3,11.4,2.7c8.5-4.7,19-3.3,25.9,3.5c4.7,4.5,7.1,10.9,6.6,17.4c-0.1,2.4-0.7,4.8-1.8,7
					c-2.7,6.6-8.6,11.3-15.5,12.6C25,43.6,23.4,43.8,21.8,43.8z M22,8.4c-2.3,0-4.6,0.6-6.6,1.7l-0.1,0c-3,1.6-5.2,4.3-6.1,7.5
					l-0.1,0.4c-0.7,1.7-0.9,3.6-0.5,5.5l0,0.2c0.1,0.4,0.1,0.8,0.2,1.2c0.8,3.5,2.9,6.5,5.9,8.4c3,1.9,6.6,2.6,10.1,1.8l0.1,0
					c4.3-0.8,7.9-3.7,9.5-7.7l0.2-0.4c0.6-1.1,0.9-2.3,1-3.6l0-0.2c0.3-4-1.1-8-4.1-10.9C28.9,9.8,25.5,8.4,22,8.4L22,8.4z"/>
			</g>
		</g>
		<g id="Group_1448-2" transform="translate(-581.726 -198.832)">
			<g id="Grupo_1450" transform="translate(0)">
				<g id="Group_1">
					<path id="Path_1-2" class="st0" d="M73.9,32.4c7.2,0.1,14.3,0.5,21.2,3c6.9,2.5,11.5,7.1,13.3,14.4c0.4,1.5-0.2,1.7-1.4,1.8
						c-6.2,0.2-12.4,0.4-18.5,0.8c-2.6,0.2-4.5,0.2-5.3-3c-0.6-2.2-2.7-3.5-4.9-4.2c-3.7-1.2-7.6-1.3-11.3-0.4
						c-0.5,0.1-0.9,0.3-1.4,0.5c-1.6,0.8-3,1.9-2.8,3.9c0.1,1.9,1.6,2.7,3.2,3.3c3.4,1.3,7,1.6,10.5,2.2c7.6,1.4,15.2,2.7,22.4,5.6
						c2.8,1.1,5.5,2.7,7.7,4.8c6.6,6.2,6.6,16.2-0.2,23.1c-4.6,4.8-10.5,7.1-16.8,8.4c-8.1,1.6-16.2,1.6-24.4,1
						c-4.8-0.2-9.6-1.1-14.1-2.7c-8.2-3-13.4-8.8-15.2-17.4c-0.2-1.1-0.3-1.6,1.2-1.7c7.3-0.3,14.6-0.7,21.9-1.1
						c0.7,0,1.2-0.1,1.5,0.9c1.4,6.7,6.4,9.1,12,9.7c2.9,0.4,5.9,0.1,8.7-0.8c1.1-0.4,2.1-0.9,3-1.6c3.1-2.5,3.1-5.7-0.1-8.1
						c-2.4-1.8-5.4-2.4-8.2-3c-6.4-1.3-12.9-2.2-19.1-4.1c-3.6-1-7-2.5-10.2-4.4c-10.2-6.3-9.9-18.2-0.3-24.8
						c4.4-2.9,9.4-4.7,14.7-5.3C64.9,32.6,69.4,32.3,73.9,32.4z"/>
					<path id="Path_2-2" class="st2" d="M108.7,96.9c3.4-7.1,6.6-14,9.9-20.9c6.5-13.7,13.1-27.5,19.6-41.2c0.3-0.9,1.2-1.5,2.1-1.3
						c8.2,0,16.3,0.1,24.5,0c0.8-0.1,1.5,0.4,1.8,1.1c9.6,20.4,19.3,40.8,28.9,61.2c0.5,1.1,0.3,1.3-0.8,1.3c-7.8,0-15.5,0-23.3,0
						c-0.8,0.1-1.6-0.5-1.8-1.3c-1-2.7-2.1-5.4-3.1-8.1c-0.1-0.7-0.8-1.1-1.5-1c-8.7,0-17.3,0-26,0c-0.7-0.1-1.4,0.4-1.6,1.2
						c-1,2.8-2.1,5.5-3.1,8.3c-0.2,0.6-0.5,1-1.3,1c-7.9,0-15.8,0-23.7,0C109.1,97,108.9,97,108.7,96.9z M160.7,72.8L152,50
						c-1.5,4-3,7.7-4.4,11.4c-1.4,3.7-2.9,7.5-4.4,11.3L160.7,72.8z"/>
					<path id="Path_3-2" class="st3" d="M32,33.6v1.3c0,20.2,0,40.4,0,60.6c0,1.2-0.3,1.5-1.5,1.5c-8.6-0.1-17.1,0-25.7,0
						c-0.9,0-1.2-0.2-1.2-1.2c0-20.5,0-40.9,0-61.4c0-0.2,0-0.5,0-0.8C13.1,40.7,22.5,40.7,32,33.6z"/>
					<path id="Path_4-2" class="st3" d="M56.3,15.6c0.3,3.8-0.4,7.3,0.5,10.8h-3c0.9-2,0.8-12.4-0.1-14.1c1.4,0.2,2.9-0.6,4,0.8
						c0.9,1.1,1.9,2.1,3.2,3.4c0-1.5,0.1-2.7,0-3.8c-0.1-1.1-0.9-1.2-1.8-1.3c-0.4,0-1.2,0.3-1.2-0.5c0-0.6,0.8-0.4,1.3-0.4
						c2,0,3.9,0,5.9,0c0.4,0,1.1-0.2,1.1,0.4c0,0.6-0.7,0.4-1.1,0.5c-0.5,0.1-1,0.2-1.4,0.3c-0.7,0.1-1.2,0.7-1.1,1.3
						c0,0.1,0,0.3,0,0.4c-0.9,4.1,1.2,6.7,4.4,9.1c-0.3-3.4,0.5-6.8-0.5-10.2h3.1c-0.7,1.2-1,2.6-0.8,4c0,3.1,0,6.3,0,9.4
						c0,1.1-0.4,1.1-1.2,0.8c-1.1-0.6-2.1-1.5-2.9-2.4c-0.6-0.6-1.2-1.3-1.9-2c-0.1,1.5-0.5,3.1-1.1,4.4c-1.5,2.4-3.8,3.2-6.4,3.4
						c-2.5,0.3-5,0.2-7.5-0.1c-3.3-0.6-4.9-2.4-5-5.7c-0.1-3.2,0-6.5,0-9.7c0-2.6-0.1-2.6-2.6-2.9c-0.3,0-0.9,0.3-0.9-0.4
						c0-0.5,0.5-0.5,0.9-0.5c2.9,0,5.8,0,8.7,0c0.4,0,0.9,0.1,0.9,0.6c0,0.4-0.5,0.3-0.8,0.4c-2.9,0.6-3,0.6-3,3.6
						c0,2.9,0,5.9,0.1,8.8c0.2,3.1,2.2,5,5.3,5.1c1.6,0.1,3.2,0,4.8-0.2c3.4-0.3,4.4-2.8,4.8-5.3c0.3-2.2,0-4.1-1.9-5.6
						C58,17.3,57.2,16.5,56.3,15.6z"/>
					<path id="Path_5-2" class="st3" d="M112,19.3c1-0.4,1.9-0.7,2.8-1.1c1-0.3,1.6-1.3,1.4-2.3c-0.1-1.1-1-1.9-2-2
						c-0.7-0.1-1.5-0.1-2.2-0.1c-0.7,0-0.8,0.3-0.8,0.9c0,3.2,0,6.5,0,9.7c0.1,0.7,0.3,1.4,0.8,2h-4c1.1-2.2,0.5-4.6,0.5-7
						c0-2.4,0.6-4.8-0.6-7.2c2.5,0.1,5-0.2,7.5,0.2c0.7,0.1,1.3,0.3,1.9,0.7c2.2,1.3,2.3,3.8,0.2,5.3c-0.7,0.4-1.4,0.8-2.1,1.1
						c3,5.9,8.1,7.1,13.7,5.5c1-0.3,2-0.8,2.1-2c0-1.2-1-1.6-1.8-2.1c-1.5-0.7-3.1-1.4-4.7-2.1c-1.4-0.7-2.5-1.7-2.3-3.4
						c0.2-1.7,1.5-2.4,2.9-2.9c2.2-0.6,4.6-0.7,6.8-0.1c1.2,0.2,0.1,1.5,0.6,2.1c-0.6,0.3-0.9-0.1-1.2-0.2c-1.2-0.6-2.6-0.9-4-0.7
						c-1,0.1-2.2,0.4-2.4,1.6s0.7,1.7,1.6,2.1c1.6,0.8,3.2,1.4,4.8,2.1c1.3,0.4,2.2,1.6,2.3,3c0,1.4-0.8,2.7-2.1,3.3
						c-1,0.6-2,1-3.2,1.1c-2.9,0.3-5.9,0.2-8.8-0.3c-1.1-0.1-2.1-0.6-2.8-1.4C115.3,23.1,113.7,21.2,112,19.3z"/>
					<path id="Path_6-2" class="st3" d="M176.5,12.3c3,0.1,5.9-0.2,8.8,0.3c4.5,0.7,7.2,4.1,6.3,8.1c-0.6,2.6-2.6,4.7-5.2,5.2
						c-3.2,0.9-6.5,0.5-9.8,0.6C177.5,24.5,177.4,14,176.5,12.3z M179.9,19.4v2.2c0,3.5,0.2,3.7,3.8,3.3c2.5-0.2,4.6-1.9,5.3-4.2
						c0.6-2.2-0.3-4.6-2.3-5.8c-1.8-1.1-4-1.4-6.1-1c-0.7,0.1-0.7,0.5-0.7,1C179.9,16.5,179.9,17.9,179.9,19.4L179.9,19.4z"/>
					<path id="Path_7-2" class="st3" d="M143.7,26.5c1-1.9,1.1-12.1,0-14.2c3,0.1,6-0.2,9,0.3c3.3,0.6,6,3,6.3,5.8
						c0.4,3.2-1.5,6.3-4.7,7.3c-1.3,0.5-2.7,0.7-4,0.8C148.1,26.5,145.9,26.5,143.7,26.5z M147.1,19.3v2.4c0,3.5,0.2,3.7,3.8,3.3
						c2.4-0.2,4.5-1.8,5.2-4.1c0.6-2-0.1-4.3-1.8-5.5c-1.9-1.4-4.3-1.8-6.6-1.3c-0.6,0.1-0.7,0.4-0.7,0.9
						C147.1,16.4,147.1,17.8,147.1,19.3L147.1,19.3z"/>
					<path id="Path_8-2" class="st3" d="M176,26.5h-4.5c0.4-0.9-0.6-4.5-1.4-5.1c-0.3-0.1-0.5-0.2-0.8-0.2c-0.8,0-1.7,0-2.5,0
						c-1,0-2.2-0.4-2.8,0.2c-0.8,1.1-1.4,2.2-1.8,3.5c-0.3,0.5,0.1,1,0.3,1.6h-3.4c2.3-2.9,6.5-12.7,6.1-14c0.1,0,0.2-0.1,0.3-0.1
						c3.3-0.1,3.3-0.1,4.6,2.9c1.2,2.7,2.4,5.4,3.6,8C174.2,24.5,175,25.6,176,26.5z M167.2,14.3c-0.9,1.8-1.5,3.2-2.2,4.7
						c-0.3,0.6-0.1,0.8,0.5,0.8c1.3,0,2.5,0,4,0L167.2,14.3z"/>
					<path id="Path_9-2" class="st3" d="M105.7,23.8c-0.9,2.7-0.9,2.7-3.5,2.7H95c0.6-4.7,0.6-9.5,0-14.2c2.5,0,5.2,0,7.9,0
						c1.8,0,0.2,1.4,0.8,2c-1.5-0.5-3-0.6-4.5-0.5c-0.8,0.1-1.2,0.3-1.2,1.3c0,2.9,0,3,2.8,2.9c1.7-0.1,1.5,0.9,1.3,1.9
						c-3.9-0.9-4-0.7-4.1,3.1c0,1.2,0.2,1.8,1.6,1.9C101.7,25.1,103.8,24.7,105.7,23.8z"/>
					<path id="Path_10-2" class="st3" d="M78.2,12.4c3.2-0.1,3.2-0.1,4.3,2.5c1.1,2.8,2.3,5.6,3.6,8.8c1.5-3.3,2.8-6.3,4.1-9.2
						c0.3-0.8-0.1-1.4-0.6-2.1h3.8c-1.5,3.2-2.9,6.3-4.4,9.4c-0.7,1.5-1.4,2.9-2.1,4.4c-0.3,0.7-0.6,0.7-1.2,0.4
						c-1.1-0.6-1.9-1.6-2.3-2.8c-0.8-1.8-1.5-3.7-2.3-5.6C80.3,16.1,79.4,14.2,78.2,12.4z"/>
					<path id="Path_11-2" class="st3" d="M136.7,12.3h3.5c-0.6,4.7-0.6,9.4,0,14.1h-3.4C137.4,21.8,137.4,17,136.7,12.3z"/>
					<path id="Path_12-2" class="st3" d="M73.2,12.3h3.5c-0.9,4.7-0.6,9.4-0.2,14.1h-3.4C73.8,21.8,73.8,17,73.2,12.3z"/>
					<path id="Path_13-2" class="st4" d="M35.5,19.3c-0.1,1.9-0.5,3.8-1.4,5.4C31.9,30,27.2,33.9,21.5,35c-9.5,2.1-18.9-3.9-21-13.3
						c0,0,0,0,0,0c-0.1-0.5-0.2-1-0.3-1.5C-0.3,17.5,0,14.8,1,12.3C2.2,8,5.2,4.3,9.2,2.2c6.9-3.8,15.4-2.6,21,2.8
						C34,8.7,36,14,35.5,19.3z"/>
				</g>
			</g>
		</g>
	</g>
	
		<radialGradient id="SVGID_1_" cx="26.5108" cy="11.9012" r="16.6854" gradientTransform="matrix(0.8752 0 0 0.8441 0.8558 7.8448)" gradientUnits="userSpaceOnUse">
		<stop  offset="0" style="stop-color:#FFFFFF"/>
		<stop  offset="0.1517" style="stop-color:#FFFFFF"/>
		<stop  offset="1" style="stop-color:#F5F4F4;stop-opacity:0"/>
	</radialGradient>
	<ellipse class="st5" cx="24" cy="18.9" rx="17" ry="16.4"/>
</g>
</svg>
