<svg xmlns="http://www.w3.org/2000/svg" width="200.953" height="100.715" viewBox="0 0 200.953 100.715">
  <g id="Grupo_2" data-name="Grupo 2" transform="translate(-572 592)">
    <g id="Grupo_1" data-name="Grupo 1" transform="translate(572 -592)">
      <path id="Trazado_1" data-name="Trazado 1" d="M-503.588,1008.966c7.382.068,14.717.5,21.75,3.044,7.08,2.56,11.82,7.256,13.613,14.755.379,1.585-.192,1.766-1.447,1.815-6.348.244-12.7.393-19.038.846-2.688.192-4.612.236-5.488-3.037-.6-2.229-2.773-3.547-5.015-4.273a20.519,20.519,0,0,0-11.626-.381,6.445,6.445,0,0,0-1.4.545c-1.627.863-3.047,1.968-2.911,4.03.129,1.95,1.662,2.786,3.255,3.383,3.471,1.3,7.164,1.617,10.775,2.289,7.771,1.446,15.58,2.744,22.954,5.762a25.6,25.6,0,0,1,7.936,4.892c6.828,6.391,6.738,16.619-.156,23.764-4.75,4.922-10.753,7.338-17.285,8.655-8.276,1.669-16.635,1.626-25.011,1.01a52.52,52.52,0,0,1-14.5-2.767c-8.448-3.123-13.77-9.011-15.656-17.9-.231-1.091-.282-1.657,1.21-1.714,7.5-.286,15-.712,22.5-1.092.714-.036,1.274-.1,1.488.92,1.452,6.9,6.6,9.388,12.278,9.928a20.352,20.352,0,0,0,8.982-.779,10.7,10.7,0,0,0,3.039-1.649c3.182-2.517,3.164-5.9-.1-8.331-2.5-1.861-5.514-2.433-8.464-3.054-6.548-1.379-13.2-2.261-19.618-4.259a45.529,45.529,0,0,1-10.511-4.528c-10.489-6.469-10.2-18.685-.344-25.5a34.97,34.97,0,0,1,15.068-5.457A90.23,90.23,0,0,1-503.588,1008.966Z" transform="translate(579.44 -975.741)" fill="#fff"/>
      <path id="Trazado_2" data-name="Trazado 2" d="M-295.193,1077.989c3.442-7.255,6.8-14.352,10.173-21.443q10.059-21.156,20.1-42.32a2,2,0,0,1,2.132-1.383q12.571.075,25.142.006a1.7,1.7,0,0,1,1.826,1.126q14.822,31.438,29.727,62.837c.541,1.139.289,1.32-.852,1.315q-11.965-.048-23.93.012a1.651,1.651,0,0,1-1.826-1.326c-1.009-2.794-2.126-5.549-3.144-8.34a1.357,1.357,0,0,0-1.517-1.061q-13.328.056-26.656,0a1.453,1.453,0,0,0-1.6,1.178c-1.036,2.838-2.136,5.652-3.2,8.479-.245.65-.525,1.072-1.375,1.068-8.128-.039-16.256-.026-24.385-.031A4.522,4.522,0,0,1-295.193,1077.989Zm53.459-24.835-8.943-23.334c-1.587,4.152-3.034,7.955-4.494,11.754-1.472,3.831-2.957,7.657-4.472,11.58Z" transform="translate(406.772 -978.443)" fill="#fff"/>
      <path id="Trazado_3" data-name="Trazado 3" d="M-621.964,1013.335v1.336q0,31.127.03,62.255c0,1.242-.267,1.581-1.548,1.572-8.787-.063-17.574-.048-26.361-.012-.966,0-1.268-.221-1.266-1.235q.046-31.506.025-63.012c0-.241.024-.483.041-.813C-641.351,1020.63-631.74,1020.63-621.964,1013.335Z" transform="translate(654.805 -978.786)" fill="#fff"/>
      <path id="Trazado_4" data-name="Trazado 4" d="M-513.155,940.249c.286,3.852-.4,7.464.487,11.068h-3.052c.888-2.1.862-12.723-.135-14.473,1.486.158,2.962-.636,4.153.866.9,1.14,1.987,2.138,3.236,3.459,0-1.5.079-2.724-.024-3.937-.092-1.083-.972-1.26-1.892-1.328-.439-.032-1.235.278-1.189-.466.037-.594.8-.432,1.29-.435,2.02-.009,4.04-.015,6.059,0,.408,0,1.079-.216,1.091.429.012.616-.672.441-1.087.526-.494.1-.992.184-1.486.282a1.274,1.274,0,0,0-1.147,1.362,2.112,2.112,0,0,1-.006.453c-.959,4.2,1.275,6.91,4.506,9.326-.312-3.521.485-7.014-.525-10.493h3.214a6.6,6.6,0,0,0-.831,4.084c.015,3.231-.03,6.463.023,9.693.019,1.122-.391,1.167-1.245.778a10.944,10.944,0,0,1-3-2.507c-.633-.624-1.229-1.286-2-2.1-.256,1.73-.352,3.234-1.178,4.555-1.517,2.426-3.888,3.288-6.533,3.515a29.165,29.165,0,0,1-7.692-.13c-3.379-.608-5.027-2.428-5.108-5.874-.078-3.33-.034-6.663-.045-9.995-.009-2.659-.055-2.694-2.635-2.959-.321-.033-.94.268-.935-.393,0-.518.528-.55.924-.551q4.469-.019,8.938,0c.387,0,.9.072.891.566-.006.454-.513.356-.842.426-2.98.631-3.032.632-3.065,3.71-.032,3.026-.041,6.059.121,9.079.172,3.216,2.258,5.1,5.486,5.283a31.309,31.309,0,0,0,4.97-.163c3.528-.355,4.559-2.907,4.922-5.4.329-2.259.01-4.258-1.992-5.743A32.094,32.094,0,0,1-513.155,940.249Z" transform="translate(570.992 -924.179)" fill="#fff"/>
      <path id="Trazado_5" data-name="Trazado 5" d="M-293.94,947.457c.993-.377,1.93-.69,2.829-1.086a2.205,2.205,0,0,0,1.475-2.384,2.368,2.368,0,0,0-2.1-2.081,12.643,12.643,0,0,0-2.251-.069c-.678-.026-.845.327-.841.939.022,3.331.019,6.662.022,9.993a3.905,3.905,0,0,0,.788,2.034h-4.121c1.081-2.3.52-4.763.513-7.155-.008-2.416.611-4.919-.633-7.356,2.6.144,5.168-.215,7.721.252a5.833,5.833,0,0,1,1.98.705c2.287,1.37,2.381,3.923.178,5.4a21.837,21.837,0,0,1-2.114,1.119c3.039,6.082,8.307,7.321,14.085,5.613,1.023-.3,2.072-.786,2.11-2.072.037-1.223-.984-1.685-1.892-2.117-1.59-.755-3.233-1.4-4.81-2.177-1.424-.7-2.571-1.7-2.339-3.509.225-1.749,1.515-2.5,3.025-3a13.763,13.763,0,0,1,7.031-.127c1.256.246.124,1.5.664,2.131-.607.359-.89-.059-1.209-.208a7.613,7.613,0,0,0-4.115-.734c-1.072.123-2.22.39-2.49,1.614s.767,1.775,1.679,2.205c1.637.772,3.331,1.422,4.967,2.2a3.49,3.49,0,0,1,2.359,3.052,3.667,3.667,0,0,1-2.132,3.39,6.954,6.954,0,0,1-3.262,1.1,37.493,37.493,0,0,1-9.053-.261,4.826,4.826,0,0,1-2.909-1.464C-290.5,951.436-292.21,949.456-293.94,947.457Z" transform="translate(408.907 -927.675)" fill="#fff"/>
      <path id="Trazado_6" data-name="Trazado 6" d="M-65.427,941.021c3.129.089,6.106-.177,9.071.281,4.611.712,7.416,4.227,6.519,8.326-.635,2.9-2.632,4.566-5.386,5.357-3.307.95-6.705.526-10.112.631C-64.423,953.52-64.461,942.806-65.427,941.021Zm3.474,7.316V950.6c0,3.592.246,3.806,3.9,3.413a6.216,6.216,0,0,0,5.428-4.362,5.281,5.281,0,0,0-2.325-5.906,8.483,8.483,0,0,0-6.255-.991c-.668.12-.766.472-.756,1.043C-61.936,945.314-61.952,946.826-61.953,948.337Z" transform="translate(246.651 -928.392)" fill="#fff"/>
      <path id="Trazado_7" data-name="Trazado 7" d="M-176.675,955.554c1.067-1.906,1.084-12.449.036-14.548,3.108.076,6.171-.2,9.213.3,3.417.566,6.187,3.117,6.445,5.91.327,3.537-1.37,6.181-4.779,7.518a12.788,12.788,0,0,1-4.134.792C-172.106,955.627-174.327,955.554-176.675,955.554Zm3.527-7.351v2.416c0,3.595.237,3.8,3.893,3.377a6.118,6.118,0,0,0,5.337-4.259,5.134,5.134,0,0,0-1.819-5.679,8.189,8.189,0,0,0-6.746-1.305c-.6.108-.681.41-.673.921C-173.134,945.183-173.148,946.694-173.148,948.2Z" transform="translate(324.179 -928.375)" fill="#fff"/>
      <path id="Trazado_8" data-name="Trazado 8" d="M-106.856,955.566h-4.572c.38-.949-.605-4.639-1.419-5.236a1.6,1.6,0,0,0-.856-.17c-.857-.021-1.716-.04-2.572,0-.994.047-2.3-.461-2.91.2a13.766,13.766,0,0,0-1.858,3.58c-.262.561.123,1.054.344,1.591h-3.471c2.357-3,6.691-13.062,6.236-14.414a1.4,1.4,0,0,1,.292-.071c3.342-.087,3.345-.088,4.753,3.013q1.871,4.12,3.726,8.247A8,8,0,0,0-106.856,955.566Zm-9.076-12.444c-.874,1.834-1.567,3.329-2.3,4.8-.323.652-.057.792.538.787,1.3-.011,2.605,0,4.148,0Z" transform="translate(287.589 -928.394)" fill="#fff"/>
      <path id="Trazado_9" data-name="Trazado 9" d="M-330.484,952.819c-.961,2.769-.961,2.769-3.621,2.769h-7.358a54.562,54.562,0,0,0,0-14.572c2.517,0,5.322-.046,8.126.017,1.812.04.177,1.47.862,2.056a11.376,11.376,0,0,0-4.663-.487c-.824.079-1.191.345-1.186,1.3.014,2.958-.034,3.064,2.834,2.935,1.777-.08,1.5.888,1.371,1.958-3.965-.925-4.125-.762-4.2,3.187-.025,1.275.226,1.832,1.642,1.906A11.583,11.583,0,0,0-330.484,952.819Z" transform="translate(439.017 -928.377)" fill="#fff"/>
      <path id="Trazado_10" data-name="Trazado 10" d="M-398.421,941.117c3.292-.129,3.293-.129,4.381,2.562,1.163,2.878,2.325,5.757,3.659,9.063,1.509-3.39,2.873-6.419,4.2-9.463.341-.78-.118-1.449-.609-2.156h3.861c-1.542,3.29-3.027,6.466-4.519,9.639-.706,1.5-1.457,2.983-2.123,4.5-.3.682-.624.764-1.255.431a5.342,5.342,0,0,1-2.33-2.872c-.811-1.895-1.58-3.808-2.388-5.7A28.224,28.224,0,0,0-398.421,941.117Z" transform="translate(478.71 -928.429)" fill="#fff"/>
      <path id="Trazado_11" data-name="Trazado 11" d="M-200.228,941.153h3.567a60.344,60.344,0,0,0-.046,14.5h-3.486A49.8,49.8,0,0,0-200.228,941.153Z" transform="translate(340.592 -928.484)" fill="#fff"/>
      <path id="Trazado_12" data-name="Trazado 12" d="M-415.625,941.135h3.582c-.885,4.836-.585,9.644-.206,14.5h-3.442A49.5,49.5,0,0,0-415.625,941.135Z" transform="translate(490.745 -928.471)" fill="#fff"/>
      <path id="Trazado_13" data-name="Trazado 13" d="M-626.848,919.132a12.513,12.513,0,0,1-1.488,5.586,17.355,17.355,0,0,1-12.919,10.548,18.048,18.048,0,0,1-21.818-15.274,14.367,14.367,0,0,1,.791-8,16.951,16.951,0,0,1,8.421-10.363,18.227,18.227,0,0,1,21.545,2.916A18.185,18.185,0,0,1-626.848,919.132Z" transform="translate(663.301 -899.355)" fill="#fff"/>
    </g>
  </g>
</svg>
