<svg xmlns="http://www.w3.org/2000/svg" width="207.556" height="106.447" viewBox="0 0 207.556 106.447">
  <g id="Grupo_1452" data-name="Grupo 1452" transform="translate(585.897 203.032)">
    <g id="Group_1448" data-name="Group 1448" transform="translate(-585.897 -203.032)">
      <g id="Path_1" data-name="Path 1" transform="translate(35.545 32.378)">
        <path id="Trazado_2423" data-name="Trazado 2423" d="M-485.664-146.069c7.189.066,14.331.487,21.181,2.964,6.895,2.493,11.511,7.066,13.257,14.369.369,1.544-.187,1.72-1.409,1.768-6.182.237-12.368.382-18.54.823-2.617.187-4.491.23-5.344-2.957-.585-2.171-2.7-3.454-4.884-4.161a19.987,19.987,0,0,0-11.321-.371,6.306,6.306,0,0,0-1.364.531c-1.584.841-2.967,1.917-2.835,3.924.126,1.9,1.619,2.714,3.17,3.295,3.38,1.266,6.977,1.575,10.493,2.229,7.568,1.408,15.172,2.672,22.354,5.611a24.941,24.941,0,0,1,7.728,4.764c6.649,6.223,6.562,16.184-.152,23.142-4.626,4.793-10.471,7.146-16.833,8.429-8.059,1.625-16.2,1.583-24.356.984a51.147,51.147,0,0,1-14.12-2.695c-8.227-3.041-13.409-8.775-15.246-17.431-.225-1.062-.275-1.614,1.178-1.669,7.3-.278,14.607-.694,21.911-1.063.7-.035,1.241-.1,1.45.9,1.414,6.719,6.427,9.142,11.956,9.668a19.822,19.822,0,0,0,8.747-.758,10.416,10.416,0,0,0,2.959-1.606c3.1-2.451,3.081-5.745-.1-8.113-2.434-1.812-5.369-2.369-8.242-2.973-6.377-1.343-12.854-2.2-19.1-4.148a44.376,44.376,0,0,1-10.236-4.41c-10.214-6.3-9.933-18.2-.335-24.832a34.05,34.05,0,0,1,14.674-5.314A87.928,87.928,0,0,1-485.664-146.069Z" transform="translate(528.175 150.244)" fill="#017336"/>
        <path id="Trazado_2424" data-name="Trazado 2424" d="M-487.307-78.5c-3.034,0-6.272-.131-9.794-.389A55.3,55.3,0,0,1-512.318-81.8l-.1-.035c-9.746-3.6-15.761-10.492-17.88-20.478a5.49,5.49,0,0,1,.809-4.734,5.408,5.408,0,0,1,4.29-1.969c5.313-.2,10.725-.483,15.972-.756a48.527,48.527,0,0,1-8.588-3.991l-.071-.043c-5.923-3.652-9.412-9.271-9.573-15.415-.165-6.327,3.135-12.3,9.056-16.4l.09-.061a38.43,38.43,0,0,1,16.414-5.958,92.015,92.015,0,0,1,13.941-.927h0c7.291.067,15.069.5,22.561,3.213,8.537,3.086,13.884,8.914,15.894,17.321a5.568,5.568,0,0,1-.78,4.864,5.662,5.662,0,0,1-4.523,2.04q-2.217.085-4.429.16-1.955.067-3.94.141.741.279,1.48.581a29,29,0,0,1,8.983,5.546l.052.047a19.4,19.4,0,0,1,6.25,13.733,21.33,21.33,0,0,1-6.25,15.35c-4.732,4.9-10.772,7.96-19.01,9.621A77.924,77.924,0,0,1-487.307-78.5ZM-509.57-89.68a46.937,46.937,0,0,0,12.92,2.458l.108.006c9.477.7,16.64.416,23.226-.912,6.5-1.31,11.156-3.609,14.656-7.236a13.063,13.063,0,0,0,3.914-9.346,10.966,10.966,0,0,0-3.586-7.831,20.677,20.677,0,0,0-6.409-3.943l-.074-.03c-6.213-2.543-12.779-3.754-19.73-5.036l-1.806-.334c-.9-.167-1.8-.31-2.7-.454a42.6,42.6,0,0,1-8.489-1.97c-3.682-1.38-5.656-3.71-5.869-6.925-.221-3.34,1.476-5.993,5.042-7.885A10.426,10.426,0,0,1-496.1-140a24.092,24.092,0,0,1,13.684.449c3.995,1.294,6.694,3.772,7.582,6.974.366-.01.8-.04,1.036-.057,4.78-.341,9.61-.51,14.28-.673l.814-.028c-1.752-3.848-4.843-6.485-9.522-8.176-5.965-2.158-12.229-2.646-19.8-2.716h0a83.875,83.875,0,0,0-12.728.85l-.11.015A30.05,30.05,0,0,0-513.7-138.73c-3.534,2.46-5.507,5.842-5.417,9.288.087,3.314,2.067,6.336,5.579,8.512a40.208,40.208,0,0,0,9.236,3.973l.085.025a110.585,110.585,0,0,0,12.714,2.88c1.965.366,4,.745,6.01,1.168l.365.076c3.019.633,6.442,1.351,9.509,3.634a9.3,9.3,0,0,1,4.082,7.292,9.345,9.345,0,0,1-3.888,7.437A14.646,14.646,0,0,1-479.6-92.17l-.1.033a24.141,24.141,0,0,1-10.5.93c-7.461-.734-12.641-4.4-14.84-10.433l-3.287.171c-4.225.221-8.561.447-12.886.636C-519.247-95.517-515.412-91.851-509.57-89.68Zm11.707-17.1a5.9,5.9,0,0,1,.268.9c.558,2.652,2,5.776,8.27,6.372l.174.02a15.747,15.747,0,0,0,6.853-.582,6.228,6.228,0,0,0,1.729-.947,2.27,2.27,0,0,0,.673-.746,2.356,2.356,0,0,0-.706-.725c-1.593-1.186-3.746-1.638-6.238-2.16l-.372-.078c-1.918-.4-3.9-.773-5.819-1.131C-494.626-106.148-496.24-106.449-497.863-106.777Zm-7.895,2.617v0Zm11.714-27.756a39.9,39.9,0,0,0,6.3,1.34c.975.155,1.95.311,2.92.491l1.794.332.353.065q-.1-.321-.2-.665c-.055-.2-.652-.79-2.14-1.272a15.8,15.8,0,0,0-8.986-.3Z" transform="translate(530.502 152.573)" fill="#fff"/>
      </g>
      <g id="Path_2" data-name="Path 2" transform="translate(105.801 33.514)">
        <path id="Trazado_2425" data-name="Trazado 2425" d="M-410.031-80.85c3.352-7.065,6.622-13.976,9.907-20.882q9.8-20.6,19.574-41.212a1.948,1.948,0,0,1,2.076-1.347q12.242.073,24.484.006a1.654,1.654,0,0,1,1.778,1.1Q-337.778-112.573-323.263-82c.527,1.109.281,1.285-.83,1.28q-11.652-.046-23.3.012A1.608,1.608,0,0,1-349.175-82c-.983-2.721-2.071-5.4-3.062-8.121a1.321,1.321,0,0,0-1.477-1.033q-12.979.054-25.958,0A1.414,1.414,0,0,0-381.23-90c-1.009,2.764-2.08,5.5-3.117,8.258-.238.633-.511,1.044-1.339,1.039-7.916-.038-15.83-.025-23.747-.03A4.334,4.334,0,0,1-410.031-80.85Zm52.06-24.185-8.709-22.723c-1.545,4.043-2.954,7.747-4.376,11.447-1.433,3.731-2.88,7.456-4.355,11.277Z" transform="translate(417.076 148.474)" fill="#00a4e5"/>
        <path id="Trazado_2426" data-name="Trazado 2426" d="M-351.53-78.85a5.8,5.8,0,0,1-5.578-4.268c-.477-1.312-.991-2.651-1.489-3.947q-.429-1.118-.854-2.237c-7.436.027-14.95.027-22.386,0-.468,1.253-.945,2.5-1.421,3.751q-.561,1.472-1.118,2.945a5.441,5.441,0,0,1-5.262,3.742q-8.807-.042-17.613-.028l-13.758.043,6.673-13.279c2.183-4.606,4.345-9.166,6.513-13.724q9.75-20.507,19.484-41.023a6.135,6.135,0,0,1,6.118-3.914c7.991.047,16.1.049,24.1.006a5.855,5.855,0,0,1,5.818,3.625c9.537,20.227,33.053,68.309,33.053,68.309l-8.789-.024s-15.423-.027-23.092.011Q-351.334-78.85-351.53-78.85Zm-.657-14.847c.446,1.219.912,2.429,1.377,3.641.357.931.723,1.883,1.082,2.844,5.492-.024,11.031-.031,16.534-.02-8.714-18.367-17.485-36.909-26.112-55.2-7.279.035-14.636.033-21.907-.006q-9.532,20.089-19.08,40.172c-2.167,4.555-4.327,9.112-6.508,13.714l-.626,1.321h.174q7.85,0,15.7.02.25-.656.5-1.311c.637-1.67,1.275-3.34,1.89-5.019a5.594,5.594,0,0,1,5.733-4.1c8.486.035,17.089.035,25.576,0A5.515,5.515,0,0,1-352.187-93.7Zm-3.654-9.5h-29.587l3.668-9.493c.968-2.5,1.924-4.975,2.876-7.451.958-2.494,1.911-4.99,2.9-7.591l5.361-14.027Zm-17.421-8.342h5.291l-2.638-6.883-.489,1.273Q-372.173-114.344-373.262-111.535Z" transform="translate(421.011 150.803)" fill="#fff"/>
      </g>
      <g id="Path_3" data-name="Path 3" transform="translate(3.617 29.526)">
        <path id="Trazado_2427" data-name="Trazado 2427" d="M-545.378-144.057v1.3q0,30.313.029,60.625c0,1.21-.26,1.54-1.507,1.531-8.557-.062-17.114-.047-25.671-.012-.941,0-1.235-.215-1.233-1.2q.044-30.681.024-61.363c0-.235.024-.47.04-.792C-564.258-136.953-554.9-136.953-545.378-144.057Z" transform="translate(577.931 152.374)" fill="#0a214f"/>
        <path id="Trazado_2428" data-name="Trazado 2428" d="M-549.081-81.073h-.135c-9.125-.065-18.074-.043-25.624-.012a5.415,5.415,0,0,1-3.955-1.471,5.3,5.3,0,0,1-1.465-3.911c.03-20.377.037-41.02.024-61.351,0-.242.013-.481.031-.758l.015-.251.4-7.78,6.252,4.647c7.937,5.9,15.352,5.873,23.335-.084l6.666-4.974v9.617q0,30.311.029,60.622a5.68,5.68,0,0,1-1.532,4.2A5.624,5.624,0,0,1-549.081-81.073Zm-12.811-8.385c3.262,0,6.629.007,10.04.026q-.024-25.992-.026-51.991a24.147,24.147,0,0,1-20.013.046c.008,17.245,0,34.675-.024,51.938C-568.747-89.449-565.38-89.458-561.892-89.458Z" transform="translate(580.26 157.018)" fill="#fff"/>
      </g>
      <g id="Path_4" data-name="Path 4" transform="translate(39.118 10.536)">
        <path id="Trazado_2429" data-name="Trazado 2429" d="M-501.211-174.974c.278,3.751-.389,7.269.474,10.778h-2.972c.865-2.045.839-12.39-.132-14.094,1.448.154,2.885-.619,4.044.844.876,1.11,1.935,2.082,3.151,3.368,0-1.46.077-2.653-.023-3.834-.09-1.055-.946-1.227-1.842-1.293-.428-.031-1.2.271-1.158-.454.036-.578.779-.42,1.256-.423,1.967-.008,3.934-.015,5.9,0,.4,0,1.051-.21,1.063.418.012.6-.654.43-1.059.513-.481.1-.966.179-1.447.275a1.241,1.241,0,0,0-1.117,1.326,2.024,2.024,0,0,1-.006.441c-.934,4.09,1.242,6.729,4.388,9.082-.3-3.429.472-6.83-.511-10.218h3.13a6.427,6.427,0,0,0-.809,3.977c.014,3.147-.03,6.294.022,9.439.018,1.093-.381,1.136-1.213.758a10.661,10.661,0,0,1-2.921-2.442c-.617-.608-1.2-1.253-1.947-2.045a11.088,11.088,0,0,1-1.147,4.436c-1.477,2.362-3.786,3.2-6.362,3.423a28.4,28.4,0,0,1-7.491-.126c-3.29-.592-4.9-2.365-4.974-5.72-.076-3.243-.033-6.488-.044-9.733-.009-2.589-.054-2.623-2.566-2.882-.312-.032-.916.261-.911-.382,0-.5.514-.536.9-.536q4.352-.019,8.7,0c.377,0,.877.07.868.551-.006.442-.5.347-.82.415-2.9.615-2.952.615-2.984,3.613-.031,2.947-.04,5.9.117,8.841.167,3.131,2.2,4.966,5.342,5.144a30.488,30.488,0,0,0,4.84-.158c3.435-.346,4.44-2.831,4.793-5.258.32-2.2.01-4.147-1.94-5.593A31.207,31.207,0,0,1-501.211-174.974Z" transform="translate(522.605 184.285)" fill="#0a214f"/>
        <path id="Trazado_2430" data-name="Trazado 2430" d="M-508.048-158.669a32.621,32.621,0,0,1-4.841-.361l-.119-.02c-5.295-.953-8.28-4.407-8.405-9.727-.054-2.286-.049-4.586-.046-6.809q0-.909,0-1.817a4.335,4.335,0,0,1-1.962-1.007,4.544,4.544,0,0,1-1.516-3.494,4.73,4.73,0,0,1,5.06-4.676q4.358-.018,8.732,0a5.275,5.275,0,0,1,2.784.731l1.482,1.061,1.824-.178a4.934,4.934,0,0,1,4.241-1.62l.089,0c1.9-.009,3.84-.015,5.777,0a4.888,4.888,0,0,1,3.823,1.142,4.529,4.529,0,0,1,.629.694h7.3l-3.6,6.25a2.27,2.27,0,0,0-.284,1.4l.03.482c.005,1.2,0,2.409,0,3.613,0,1.9-.009,3.865.022,5.778a5.182,5.182,0,0,1-1.213,3.672l.189,2.129-1.487-1.113a5,5,0,0,1-4.6-.067l-.331-.169q-.514-.293-1-.622c-2,2.65-4.99,4.168-8.9,4.517A32.711,32.711,0,0,1-508.048-158.669ZM-509.93-177.4c-.025,2.529-.033,5.413.116,8.182.007.133.013.257.03.372a51.944,51.944,0,0,0,.041-8.592C-509.8-177.42-509.867-177.407-509.93-177.4Zm-1.244-.843h0Z" transform="translate(524.934 186.613)" fill="#fff"/>
      </g>
      <g id="Path_5" data-name="Path 5" transform="translate(105.488 12.014)">
        <path id="Trazado_2431" data-name="Trazado 2431" d="M-407.238-170.533c.967-.367,1.879-.672,2.755-1.057a2.147,2.147,0,0,0,1.437-2.322,2.306,2.306,0,0,0-2.045-2.026,12.266,12.266,0,0,0-2.192-.067c-.66-.025-.823.319-.819.914.022,3.244.019,6.488.022,9.731a3.8,3.8,0,0,0,.767,1.981h-4.014c1.053-2.239.507-4.638.5-6.968-.008-2.352.595-4.79-.617-7.164,2.532.141,5.033-.209,7.519.246a5.682,5.682,0,0,1,1.928.687c2.227,1.334,2.319,3.82.173,5.258a21.227,21.227,0,0,1-2.058,1.09c2.959,5.923,8.089,7.129,13.716,5.466,1-.292,2.018-.766,2.055-2.017.036-1.192-.958-1.641-1.842-2.062-1.548-.735-3.149-1.364-4.684-2.12-1.387-.682-2.5-1.655-2.278-3.417.219-1.7,1.475-2.434,2.946-2.921a13.411,13.411,0,0,1,6.847-.124c1.223.24.121,1.461.647,2.076-.592.349-.867-.058-1.177-.2a7.412,7.412,0,0,0-4.008-.715c-1.043.12-2.162.38-2.424,1.571s.747,1.729,1.635,2.148c1.594.752,3.244,1.385,4.837,2.143a3.4,3.4,0,0,1,2.3,2.972,3.571,3.571,0,0,1-2.076,3.3,6.776,6.776,0,0,1-3.176,1.071,36.493,36.493,0,0,1-8.816-.254,4.7,4.7,0,0,1-2.832-1.426C-403.888-166.658-405.553-168.586-407.238-170.533Z" transform="translate(417.896 181.98)" fill="#0a214f"/>
        <path id="Trazado_2432" data-name="Trazado 2432" d="M-397.533-161.064a40.779,40.779,0,0,1-6.028-.449l-.171-.024H-421.5l2.794-5.945a7.426,7.426,0,0,0,.185-3.17c-.039-.641-.08-1.3-.081-2.012s.038-1.4.079-2.049a6.592,6.592,0,0,0-.239-3.229l-2.457-4.814,6.4-1.247c.806.044,1.657.029,2.559.013a27.24,27.24,0,0,1,5.442.287,9.836,9.836,0,0,1,3.3,1.183l.059.035a8.656,8.656,0,0,1,1.124.8,9.669,9.669,0,0,1,3.449-1.9l.173-.053a17.61,17.61,0,0,1,8.93-.174,4.741,4.741,0,0,1,3.817,4.531l2.284,2.669-3.156,1.866a7.56,7.56,0,0,1,2.077,4.686l.01.234a7.745,7.745,0,0,1-4.212,7.017,10.976,10.976,0,0,1-4.859,1.58Q-395.672-161.065-397.533-161.064Z" transform="translate(421.499 184.309)" fill="#fff"/>
      </g>
      <g id="Path_6" data-name="Path 6" transform="translate(173.559 12.121)">
        <path id="Trazado_2433" data-name="Trazado 2433" d="M-304.333-177.324c3.047.087,5.946-.173,8.833.273,4.49.694,7.222,4.116,6.349,8.108a6.812,6.812,0,0,1-5.245,5.217c-3.221.925-6.53.512-9.848.615C-303.356-165.152-303.392-175.586-304.333-177.324Zm3.383,7.124v2.2c0,3.5.239,3.706,3.8,3.324a6.054,6.054,0,0,0,5.286-4.248,5.143,5.143,0,0,0-2.264-5.751,8.26,8.26,0,0,0-6.091-.965c-.651.117-.746.459-.736,1.016C-300.933-173.144-300.95-171.671-300.95-170.2Z" transform="translate(311.443 181.699)" fill="#0a214f"/>
        <path id="Trazado_2434" data-name="Trazado 2434" d="M-313.641-161.437l1.553-5.668a42.611,42.611,0,0,0-.011-10.91l-3.315-6.127,7.228.205c.927.027,1.845.019,2.816.009a39.668,39.668,0,0,1,6.536.312,12,12,0,0,1,8.238,4.92,10.409,10.409,0,0,1,1.548,8.2,10.966,10.966,0,0,1-8.168,8.335,27.968,27.968,0,0,1-8.286.77c-.9-.01-1.752-.021-2.585,0Zm1.6-5.778,0,.006Zm11.291-5.425v1.163a1.878,1.878,0,0,0,.906-1.049.978.978,0,0,0-.441-1.035,3.871,3.871,0,0,0-.463-.236Zm-11.383-5.505Z" transform="translate(315.413 184.142)" fill="#fff"/>
      </g>
      <g id="Path_7" data-name="Path 7" transform="translate(140.716 12.159)">
        <path id="Trazado_2435" data-name="Trazado 2435" d="M-355.509-163.159c1.039-1.856,1.056-12.124.035-14.167,3.027.074,6.009-.2,8.972.292,3.328.551,6.025,3.036,6.276,5.755a6.736,6.736,0,0,1-4.654,7.321,12.434,12.434,0,0,1-4.026.771C-351.06-163.088-353.222-163.159-355.509-163.159Zm3.435-7.159v2.353c0,3.5.231,3.7,3.791,3.289a5.958,5.958,0,0,0,5.2-4.148,5,5,0,0,0-1.772-5.53,7.972,7.972,0,0,0-6.569-1.271c-.585.105-.663.4-.655.9.021,1.469.008,2.941.008,4.408Z" transform="translate(362.624 181.665)" fill="#0a214f"/>
        <path id="Trazado_2436" data-name="Trazado 2436" d="M-355.543-161.382c-.659,0-1.312-.006-1.957-.012s-1.312-.012-1.982-.012H-366.6l3.36-6a36.879,36.879,0,0,0-.009-10.611l-3.029-6.065,6.931.169c.872.021,1.748.012,2.677,0a38.779,38.779,0,0,1,6.87.345c5.225.866,9.325,4.855,9.753,9.487a10.9,10.9,0,0,1-7.285,11.588l-.074.028a16.578,16.578,0,0,1-5.327,1.029C-353.674-161.394-354.614-161.382-355.543-161.382Zm-7.728-5.912h0Zm11.4-6.451,0,2.277a1.778,1.778,0,0,0,.839-1.027.837.837,0,0,0-.267-.919A3.819,3.819,0,0,0-351.875-173.745Zm-11.312-4.153.008.017Z" transform="translate(366.598 184.083)" fill="#fff"/>
      </g>
      <g id="Path_8" data-name="Path 8" transform="translate(154.749 12.205)">
        <path id="Trazado_2437" data-name="Trazado 2437" d="M-314.495-163.162h-4.452c.37-.924-.59-4.517-1.382-5.1a1.562,1.562,0,0,0-.834-.166c-.835-.02-1.671-.038-2.5,0-.968.046-2.24-.449-2.834.2a13.425,13.425,0,0,0-1.81,3.486c-.255.547.12,1.027.335,1.55h-3.38c2.3-2.921,6.515-12.72,6.073-14.037A1.351,1.351,0,0,1-325-177.3c3.254-.085,3.257-.086,4.628,2.934q1.822,4.013,3.629,8.031A7.794,7.794,0,0,0-314.495-163.162Zm-8.838-12.118c-.851,1.786-1.526,3.242-2.24,4.675-.314.635-.055.771.524.766,1.266-.01,2.536,0,4.039,0Z" transform="translate(339.936 181.615)" fill="#0a214f"/>
        <path id="Trazado_2438" data-name="Trazado 2438" d="M-313.149-161.387H-329.9l.014-.034h-14.84l5.3-6.748c1.607-2.044,4.5-8.628,5.121-10.956l-1.024-3.042,3.841-1.385a5.475,5.475,0,0,1,1.152-.28l.438-.035.1,0,.382-.061a6.393,6.393,0,0,1,3.3.343h0c2.178.551,3.335,1.982,4.75,5.1q1.825,4.019,3.635,8.045l.094.227a3.629,3.629,0,0,0,1.044,1.475Zm-15.543-5.262.454,1.107.371-.927c-.011-.064-.023-.13-.038-.2-.121,0-.241.007-.359.012C-328.411-166.65-328.554-166.648-328.692-166.65Z" transform="translate(344.728 184.011)" fill="#fff"/>
      </g>
      <g id="Path_9" data-name="Path 9" transform="translate(94.418 12.319)">
        <path id="Trazado_2439" data-name="Trazado 2439" d="M-420.625-165.824c-.936,2.7-.936,2.7-3.526,2.7h-7.165a53.122,53.122,0,0,0,0-14.19c2.451,0,5.183-.045,7.913.017,1.765.038.173,1.431.84,2a11.075,11.075,0,0,0-4.541-.474c-.8.077-1.16.336-1.155,1.266.013,2.88-.033,2.984,2.76,2.858,1.731-.078,1.46.865,1.335,1.907-3.862-.9-4.017-.742-4.091,3.1-.024,1.242.22,1.784,1.6,1.856A11.281,11.281,0,0,0-420.625-165.824Z" transform="translate(436.087 181.505)" fill="#0a214f"/>
        <path id="Trazado_2440" data-name="Trazado 2440" d="M-426.815-161.286h-11.936l.637-4.728a48.969,48.969,0,0,0,0-13.076l-.637-4.728h4.771c.7,0,1.431,0,2.175-.008,1.886-.01,3.836-.02,5.833.025a4.913,4.913,0,0,1,4.034,1.929,4.444,4.444,0,0,1,.881,2.322l4.281,3.663.7-.336-.251.723,9.6,8.213-11.2-3.607-1.426,4.108C-420.757-162.727-422.1-161.286-426.815-161.286Z" transform="translate(438.751 183.834)" fill="#fff"/>
      </g>
      <g id="Path_10" data-name="Path 10" transform="translate(74.974 12.361)">
        <path id="Trazado_2441" data-name="Trazado 2441" d="M-457.518-177.258c3.206-.126,3.206-.126,4.266,2.495,1.133,2.8,2.264,5.607,3.564,8.826,1.469-3.3,2.8-6.251,4.09-9.216.332-.76-.115-1.411-.594-2.1h3.76c-1.5,3.2-2.948,6.3-4.4,9.387-.688,1.46-1.419,2.9-2.067,4.382-.292.664-.608.744-1.222.42a5.2,5.2,0,0,1-2.269-2.8c-.79-1.845-1.539-3.708-2.325-5.551A27.525,27.525,0,0,0-457.518-177.258Z" transform="translate(464.92 181.45)" fill="#0a214f"/>
        <path id="Trazado_2442" data-name="Trazado 2442" d="M-454.011-157.576l-1.541-3.818a6.22,6.22,0,0,1-.651-.3l-.183-.1a9.386,9.386,0,0,1-4.028-4.868c-.389-.913-.77-1.831-1.15-2.748-.371-.9-.742-1.79-1.122-2.681l-.112-.291a23.365,23.365,0,0,0-2.377-4.959l-3.879-6.118,7.238-.284a14.723,14.723,0,0,1,3.647.194l-.133-.192H-440l-4.132,8.819c-1.029,2.2-2.04,4.356-3.055,6.513q-.365.774-.738,1.542c-.457.947-.889,1.842-1.285,2.742a4.97,4.97,0,0,1-2.927,2.839c-.08.028-.165.055-.253.08Zm.455-21.561,0,.005Z" transform="translate(469.053 183.769)" fill="#fff"/>
      </g>
      <g id="Path_11" data-name="Path 11" transform="translate(134.814 12.364)">
        <path id="Trazado_2443" data-name="Trazado 2443" d="M-366.345-177.264h3.474a58.733,58.733,0,0,0-.045,14.12h-3.4A48.5,48.5,0,0,0-366.345-177.264Z" transform="translate(372.409 181.435)" fill="#0a214f"/>
        <path id="Trazado_2444" data-name="Trazado 2444" d="M-361.612-161.3H-375.8l1.97-4.768a44.275,44.275,0,0,0-.031-12.906l-.716-4.788h13.036l-.582,4.685a54.607,54.607,0,0,0-.042,13.118Z" transform="translate(375.795 183.764)" fill="#fff"/>
      </g>
      <g id="Path_12" data-name="Path 12" transform="translate(72.422 12.359)">
        <path id="Trazado_2445" data-name="Trazado 2445" d="M-465.4-177.271h3.488c-.862,4.709-.57,9.391-.2,14.12h-3.351A48.212,48.212,0,0,0-465.4-177.271Z" transform="translate(470.319 181.442)" fill="#0a214f"/>
        <path id="Trazado_2446" data-name="Trazado 2446" d="M-460.315-161.309h-12.716l.733-4.8a44,44,0,0,0,.059-12.9l-.683-4.762h13.3l-.9,4.922c-.754,4.121-.512,8.346-.145,13.045Z" transform="translate(473.031 183.771)" fill="#fff"/>
      </g>
      <g id="Path_13" data-name="Path 13">
        <path id="Trazado_2447" data-name="Trazado 2447" d="M-543.881-177.23a12.183,12.183,0,0,1-1.449,5.44,16.9,16.9,0,0,1-12.58,10.272,17.576,17.576,0,0,1-20.976-13.336q-.169-.763-.271-1.539a13.988,13.988,0,0,1,.771-7.79,16.507,16.507,0,0,1,8.2-10.092,17.75,17.75,0,0,1,20.981,2.84A17.707,17.707,0,0,1-543.881-177.23Z" transform="translate(583.568 200.687)" fill="#6ab0ca"/>
        <path id="Trazado_2448" data-name="Trazado 2448" d="M-564.1-159.265a21.6,21.6,0,0,1-11.625-3.4,21.6,21.6,0,0,1-9.559-13.625c-.132-.59-.239-1.192-.321-1.792a18.125,18.125,0,0,1,.94-9.795,20.769,20.769,0,0,1,10.173-12.413,21.789,21.789,0,0,1,25.873,3.527,21.791,21.791,0,0,1,6.576,17.424,16.434,16.434,0,0,1-1.833,6.975,20.974,20.974,0,0,1-15.528,12.588A21.914,21.914,0,0,1-564.1-159.265Zm.185-35.414a13.6,13.6,0,0,0-6.582,1.709l-.077.042a12.392,12.392,0,0,0-6.129,7.542l-.141.413a9.807,9.807,0,0,0-.541,5.468l.036.225c.051.393.121.788.207,1.174a13.317,13.317,0,0,0,5.892,8.4,13.314,13.314,0,0,0,10.106,1.772l.145-.03a12.675,12.675,0,0,0,9.477-7.737l.193-.409a8.065,8.065,0,0,0,.953-3.578l.013-.236a13.487,13.487,0,0,0-4.071-10.86A13.542,13.542,0,0,0-563.918-194.679Z" transform="translate(585.897 203.032)" fill="#fff"/>
      </g>
    </g>
    <g id="Group_1448-2" data-name="Group 1448" transform="translate(-581.726 -198.832)">
      <g id="Grupo_1450" data-name="Grupo 1450" transform="translate(0)">
        <g id="Group_1" data-name="Group 1">
          <path id="Path_1-2" data-name="Path 1" d="M-485.664-146.069c7.189.066,14.331.487,21.181,2.964,6.895,2.493,11.511,7.066,13.257,14.369.369,1.544-.187,1.72-1.409,1.768-6.182.237-12.368.382-18.54.823-2.617.187-4.491.23-5.344-2.957-.585-2.171-2.7-3.454-4.884-4.161a19.987,19.987,0,0,0-11.321-.371,6.306,6.306,0,0,0-1.364.531c-1.584.841-2.967,1.917-2.835,3.924.126,1.9,1.619,2.714,3.17,3.295,3.38,1.266,6.977,1.575,10.493,2.229,7.568,1.408,15.172,2.672,22.354,5.611a24.941,24.941,0,0,1,7.728,4.764c6.649,6.223,6.562,16.184-.152,23.142-4.626,4.793-10.471,7.146-16.833,8.429-8.059,1.625-16.2,1.583-24.356.984a51.147,51.147,0,0,1-14.12-2.695c-8.227-3.041-13.409-8.775-15.246-17.431-.225-1.062-.275-1.614,1.178-1.669,7.3-.278,14.607-.694,21.911-1.063.7-.035,1.241-.1,1.45.9,1.414,6.719,6.427,9.142,11.956,9.668a19.822,19.822,0,0,0,8.747-.758,10.416,10.416,0,0,0,2.959-1.606c3.1-2.451,3.081-5.745-.1-8.113-2.434-1.812-5.369-2.369-8.242-2.973-6.377-1.343-12.854-2.2-19.1-4.148a44.376,44.376,0,0,1-10.236-4.41c-10.214-6.3-9.933-18.2-.335-24.832a34.05,34.05,0,0,1,14.674-5.314A87.928,87.928,0,0,1-485.664-146.069Z" transform="translate(559.548 178.422)" fill="#017336"/>
          <path id="Path_2-2" data-name="Path 2" d="M-410.031-80.85c3.352-7.065,6.622-13.976,9.907-20.882q9.8-20.6,19.574-41.212a1.948,1.948,0,0,1,2.076-1.347q12.242.073,24.484.006a1.654,1.654,0,0,1,1.778,1.1Q-337.778-112.573-323.263-82c.527,1.109.281,1.285-.83,1.28q-11.652-.046-23.3.012A1.608,1.608,0,0,1-349.175-82c-.983-2.721-2.071-5.4-3.062-8.121a1.321,1.321,0,0,0-1.477-1.033q-12.979.054-25.958,0A1.414,1.414,0,0,0-381.23-90c-1.009,2.764-2.08,5.5-3.117,8.258-.238.633-.511,1.044-1.339,1.039-7.916-.038-15.83-.025-23.747-.03A4.334,4.334,0,0,1-410.031-80.85Zm52.06-24.185-8.709-22.723c-1.545,4.043-2.954,7.747-4.376,11.447-1.433,3.731-2.88,7.456-4.355,11.277Z" transform="translate(518.706 177.787)" fill="#00a4e5"/>
          <path id="Path_3-2" data-name="Path 3" d="M-545.378-144.057v1.3q0,30.313.029,60.625c0,1.21-.26,1.54-1.507,1.531-8.557-.062-17.114-.047-25.671-.012-.941,0-1.235-.215-1.233-1.2q.044-30.681.024-61.363c0-.235.024-.47.04-.792C-564.258-136.953-554.9-136.953-545.378-144.057Z" transform="translate(577.376 177.699)" fill="#0a214f"/>
          <path id="Path_4-2" data-name="Path 4" d="M-501.211-174.974c.278,3.751-.389,7.269.474,10.778h-2.972c.865-2.045.839-12.39-.132-14.094,1.448.154,2.885-.619,4.044.844.876,1.11,1.935,2.082,3.151,3.368,0-1.46.077-2.653-.023-3.834-.09-1.055-.946-1.227-1.842-1.293-.428-.031-1.2.271-1.158-.454.036-.578.779-.42,1.256-.423,1.967-.008,3.934-.015,5.9,0,.4,0,1.051-.21,1.063.418.012.6-.654.43-1.059.513-.481.1-.966.179-1.447.275a1.241,1.241,0,0,0-1.117,1.326,2.024,2.024,0,0,1-.006.441c-.934,4.09,1.242,6.729,4.388,9.082-.3-3.429.472-6.83-.511-10.218h3.13a6.427,6.427,0,0,0-.809,3.977c.014,3.147-.03,6.294.022,9.439.018,1.093-.381,1.136-1.213.758a10.661,10.661,0,0,1-2.921-2.442c-.617-.608-1.2-1.253-1.947-2.045a11.088,11.088,0,0,1-1.147,4.436c-1.477,2.362-3.786,3.2-6.362,3.423a28.4,28.4,0,0,1-7.491-.126c-3.29-.592-4.9-2.365-4.974-5.72-.076-3.243-.033-6.488-.044-9.733-.009-2.589-.054-2.623-2.566-2.882-.312-.032-.916.261-.911-.382,0-.5.514-.536.9-.536q4.352-.019,8.7,0c.377,0,.877.07.868.551-.006.442-.5.347-.82.415-2.9.615-2.952.615-2.984,3.613-.031,2.947-.04,5.9.117,8.841.167,3.131,2.2,4.966,5.342,5.144a30.488,30.488,0,0,0,4.84-.158c3.435-.346,4.44-2.831,4.793-5.258.32-2.2.01-4.147-1.94-5.593A31.207,31.207,0,0,1-501.211-174.974Z" transform="translate(557.551 190.621)" fill="#0a214f"/>
          <path id="Path_5-2" data-name="Path 5" d="M-407.238-170.533c.967-.367,1.879-.672,2.755-1.057a2.147,2.147,0,0,0,1.437-2.322,2.306,2.306,0,0,0-2.045-2.026,12.266,12.266,0,0,0-2.192-.067c-.66-.025-.823.319-.819.914.022,3.244.019,6.488.022,9.731a3.8,3.8,0,0,0,.767,1.981h-4.014c1.053-2.239.507-4.638.5-6.968-.008-2.352.595-4.79-.617-7.164,2.532.141,5.033-.209,7.519.246a5.682,5.682,0,0,1,1.928.687c2.227,1.334,2.319,3.82.173,5.258a21.227,21.227,0,0,1-2.058,1.09c2.959,5.923,8.089,7.129,13.716,5.466,1-.292,2.018-.766,2.055-2.017.036-1.192-.958-1.641-1.842-2.062-1.548-.735-3.149-1.364-4.684-2.12-1.387-.682-2.5-1.655-2.278-3.417.219-1.7,1.475-2.434,2.946-2.921a13.411,13.411,0,0,1,6.847-.124c1.223.24.121,1.461.647,2.076-.592.349-.867-.058-1.177-.2a7.412,7.412,0,0,0-4.008-.715c-1.043.12-2.162.38-2.424,1.571s.747,1.729,1.635,2.148c1.594.752,3.244,1.385,4.837,2.143a3.4,3.4,0,0,1,2.3,2.972,3.571,3.571,0,0,1-2.076,3.3,6.776,6.776,0,0,1-3.176,1.071,36.493,36.493,0,0,1-8.816-.254,4.7,4.7,0,0,1-2.832-1.426C-403.888-166.658-405.553-168.586-407.238-170.533Z" transform="translate(519.212 189.794)" fill="#0a214f"/>
          <path id="Path_6-2" data-name="Path 6" d="M-304.333-177.324c3.047.087,5.946-.173,8.833.273,4.49.694,7.222,4.116,6.349,8.108a6.812,6.812,0,0,1-5.245,5.217c-3.221.925-6.53.512-9.848.615C-303.356-165.152-303.392-175.586-304.333-177.324Zm3.383,7.124v2.2c0,3.5.239,3.706,3.8,3.324a6.054,6.054,0,0,0,5.286-4.248,5.143,5.143,0,0,0-2.264-5.751,8.26,8.26,0,0,0-6.091-.965c-.651.117-.746.459-.736,1.016C-300.933-173.144-300.95-171.671-300.95-170.2Z" transform="translate(480.83 189.62)" fill="#0a214f"/>
          <path id="Path_7-2" data-name="Path 7" d="M-355.509-163.159c1.039-1.856,1.056-12.124.035-14.167,3.027.074,6.009-.2,8.972.292,3.328.551,6.025,3.036,6.276,5.755a6.736,6.736,0,0,1-4.654,7.321,12.434,12.434,0,0,1-4.026.771C-351.06-163.088-353.222-163.159-355.509-163.159Zm3.435-7.159v2.353c0,3.5.231,3.7,3.791,3.289a5.958,5.958,0,0,0,5.2-4.148,5,5,0,0,0-1.772-5.53,7.972,7.972,0,0,0-6.569-1.271c-.585.105-.663.4-.655.9.021,1.469.008,2.941.008,4.408Z" transform="translate(499.169 189.624)" fill="#0a214f"/>
          <path id="Path_8-2" data-name="Path 8" d="M-314.495-163.162h-4.452c.37-.924-.59-4.517-1.382-5.1a1.562,1.562,0,0,0-.834-.166c-.835-.02-1.671-.038-2.5,0-.968.046-2.24-.449-2.834.2a13.425,13.425,0,0,0-1.81,3.486c-.255.547.12,1.027.335,1.55h-3.38c2.3-2.921,6.515-12.72,6.073-14.037A1.351,1.351,0,0,1-325-177.3c3.254-.085,3.257-.086,4.628,2.934q1.822,4.013,3.629,8.031A7.794,7.794,0,0,0-314.495-163.162Zm-8.838-12.118c-.851,1.786-1.526,3.242-2.24,4.675-.314.635-.055.771.524.766,1.266-.01,2.536,0,4.039,0Z" transform="translate(490.513 189.62)" fill="#0a214f"/>
          <path id="Path_9-2" data-name="Path 9" d="M-420.625-165.824c-.936,2.7-.936,2.7-3.526,2.7h-7.165a53.122,53.122,0,0,0,0-14.19c2.451,0,5.183-.045,7.913.017,1.765.038.173,1.431.84,2a11.075,11.075,0,0,0-4.541-.474c-.8.077-1.16.336-1.155,1.266.013,2.88-.033,2.984,2.76,2.858,1.731-.078,1.46.865,1.335,1.907-3.862-.9-4.017-.742-4.091,3.1-.024,1.242.22,1.784,1.6,1.856A11.281,11.281,0,0,0-420.625-165.824Z" transform="translate(526.333 189.623)" fill="#0a214f"/>
          <path id="Path_10-2" data-name="Path 10" d="M-457.518-177.258c3.206-.126,3.206-.126,4.266,2.495,1.133,2.8,2.264,5.607,3.564,8.826,1.469-3.3,2.8-6.251,4.09-9.216.332-.76-.115-1.411-.594-2.1h3.76c-1.5,3.2-2.948,6.3-4.4,9.387-.688,1.46-1.419,2.9-2.067,4.382-.292.664-.608.744-1.222.42a5.2,5.2,0,0,1-2.269-2.8c-.79-1.845-1.539-3.708-2.325-5.551A27.525,27.525,0,0,0-457.518-177.258Z" transform="translate(535.722 189.611)" fill="#0a214f"/>
          <path id="Path_11-2" data-name="Path 11" d="M-366.345-177.264h3.474a58.733,58.733,0,0,0-.045,14.12h-3.4A48.5,48.5,0,0,0-366.345-177.264Z" transform="translate(503.052 189.598)" fill="#0a214f"/>
          <path id="Path_12-2" data-name="Path 12" d="M-465.4-177.271h3.488c-.862,4.709-.57,9.391-.2,14.12h-3.351A48.212,48.212,0,0,0-465.4-177.271Z" transform="translate(538.569 189.601)" fill="#0a214f"/>
          <path id="Path_13-2" data-name="Path 13" d="M-543.881-177.23a12.183,12.183,0,0,1-1.449,5.44,16.9,16.9,0,0,1-12.58,10.272,17.576,17.576,0,0,1-20.976-13.336q-.169-.763-.271-1.539a13.988,13.988,0,0,1,.771-7.79,16.507,16.507,0,0,1,8.2-10.092,17.75,17.75,0,0,1,20.981,2.84A17.707,17.707,0,0,1-543.881-177.23Z" transform="translate(579.396 196.487)" fill="#6ab0ca"/>
        </g>
      </g>
    </g>
  </g>
</svg>
