<svg xmlns="http://www.w3.org/2000/svg" id="Layer_1" enable-background="new 0 0 721.6 127.1" viewBox="0 0 721.6 127.1" x="0px" y="0px" height="20px" width="116px" xmlns:xml="http://www.w3.org/XML/1998/namespace" xml:space="preserve" version="1.1">
                            <g>
                                <g>
                                    <path d="M 721.6 12 c 0 6.7 -5.4 12 -12.2 12 c -6.9 0 -12.3 -5.3 -12.3 -12 s 5.5 -12 12.4 -12 C 716.2 0.1 721.6 5.3 721.6 12 Z M 700.1 12 c 0 5.3 4 9.5 9.3 9.5 c 5.2 0.1 9.1 -4.2 9.1 -9.5 c 0 -5.3 -3.9 -9.6 -9.3 -9.6 C 704.1 2.5 700.1 6.8 700.1 12 Z M 707.5 18.2 h -2.8 v -12 c 1.1 -0.1 2.6 -0.4 4.6 -0.4 c 2.3 0 3.3 0.4 4.1 0.9 c 0.7 0.5 1.2 1.4 1.2 2.6 c 0 1.5 -1.1 2.4 -2.5 2.8 v 0.1 c 1.2 0.4 1.7 1.3 2.1 2.9 c 0.4 1.8 0.7 2.5 0.9 2.9 h -2.9 c -0.4 -0.4 -0.6 -1.5 -0.9 -2.9 c -0.2 -1.2 -0.9 -1.8 -2.5 -1.8 h -1.3 V 18.2 Z M 707.5 11.5 h 1.3 c 1.5 0 2.8 -0.5 2.8 -1.7 c 0 -1.1 -0.8 -1.8 -2.6 -1.8 c -0.7 0 -1.2 0.1 -1.5 0.1 V 11.5 Z">
                                    </path>
                                </g>
                                <g>
                                    <g>
                                        <polygon style="fill:#0076BB;" points="684.2,0 576,0 684.2,52.7" />
                                        <polygon style="fill:#0076BB;" points="684.2,127.1 576,127.1 684.2,74.3" />
                                        <polygon style="fill:#0076BB;" points="652.6,63.7 557.1,17.9 557.1,109.5" />
                                    </g>
                                </g>
                                <g>
                                    <g>
                                        <path d="M 0 15.3 h 18.5 l 30.1 46.8 l 30.1 -46.8 h 18.5 v 98.9 H 79.9 V 43.3 L 48.6 89.9 h -0.6 l -31 -46.4 v 70.7 H 0 V 15.3 Z">
                                        </path>
                                        <path d="M 119.6 11.9 h 18.4 v 16.3 h -18.4 V 11.9 Z M 120.3 39.6 h 17.1 v 74.6 h -17.1 V 39.6 Z" />
                                        <path d="M 159.7 39.6 h 17.1 V 51 c 4.8 -6.9 11.7 -13 23.3 -13 c 16.8 0 26.6 11.3 26.6 28.5 v 47.6 h -17.1 V 71.8 c 0 -11.6 -5.8 -18.2 -16 -18.2 c -9.9 0 -16.8 6.9 -16.8 18.5 v 42.1 h -17.1 V 39.6 Z">
                                        </path>
                                        <path d="M 247.6 11.9 H 266 v 16.3 h -18.4 V 11.9 Z M 248.3 39.6 h 17.1 v 74.6 h -17.1 V 39.6 Z" />
                                        <path d="M 292.3 93.6 V 54.3 h -9.5 V 39.6 h 9.5 V 19.1 h 17.1 v 20.5 h 20.1 v 14.7 h -20.1 v 36.6 c 0 6.6 3.4 9.3 9.2 9.3 c 3.8 0 7.2 -0.8 10.6 -2.5 v 14 c -4.2 2.4 -8.9 3.8 -15.4 3.8 C 301.2 115.5 292.3 110 292.3 93.6 Z">
                                        </path>
                                        <path d="M 341.9 92.7 v -0.3 c 0 -16.1 12.6 -24 30.8 -24 c 8.3 0 14.3 1.3 20.1 3.1 v -1.8 c 0 -10.6 -6.5 -16.3 -18.5 -16.3 c -8.3 0 -14.6 1.8 -21.3 4.7 l -4.5 -13.4 c 8.2 -3.7 16.3 -6.1 28.1 -6.1 c 11.2 0 19.5 3 24.7 8.3 c 5.5 5.4 8.1 13.3 8.1 23 v 44.2 h -16.7 v -9.3 c -5.1 6.1 -12.9 10.9 -24.3 10.9 C 354.3 115.8 341.9 107.7 341.9 92.7 Z M 393 87.4 v -5.1 c -4.4 -1.7 -10.2 -3 -17 -3 c -11 0 -17.5 4.7 -17.5 12.4 V 92 c 0 7.2 6.4 11.3 14.6 11.3 C 384.4 103.3 393 96.8 393 87.4 Z">
                                        </path>
                                        <path d="M 444.1 102.6 v 11.6 H 427 V 11 h 17.1 v 41 c 5.5 -7.8 13.3 -14 25.4 -14 c 17.5 0 34.6 13.9 34.6 38.7 V 77 c 0 24.7 -17 38.7 -34.6 38.7 C 457.1 115.8 449.3 109.5 444.1 102.6 Z M 486.7 77 v -0.3 c 0 -14.4 -9.8 -23.9 -21.3 -23.9 s -21.8 9.6 -21.8 23.9 V 77 c 0 14.3 10.2 23.9 21.8 23.9 C 477.1 100.9 486.7 91.7 486.7 77 Z">
                                        </path>
                                    </g>
                                </g>
                            </g>
                        </svg>